SplineFontDB: 3.0
FontName: SmolenskyUnicode
FullName: Smolensky Unicode
FamilyName: SmolenskyUnicode
Weight: Medium
Copyright: Smolensky Unicode is a font for archaic Znamenny Notation.\n\nCopyright 2017 Aleksandr Andreev. Slavonic Computing Initiative.\nhttp://sci.ponomar.net/
UComments: "2017-2-1: Created." 
Version: 1.000
ItalicAngle: 0
UnderlinePosition: -100
UnderlineWidth: 50
Ascent: 800
Descent: 200
LayerCount: 2
Layer: 0 0 "Back"  1
Layer: 1 0 "Fore"  0
XUID: [1021 187 1807321670 11892138]
FSType: 8
OS2Version: 0
OS2_WeightWidthSlopeOnly: 0
OS2_UseTypoMetrics: 1
CreationTime: 1485932044
ModificationTime: 1488908208
PfmFamily: 17
TTFWeight: 500
TTFWidth: 5
LineGap: 90
VLineGap: 0
OS2TypoAscent: 0
OS2TypoAOffset: 1
OS2TypoDescent: 0
OS2TypoDOffset: 1
OS2TypoLinegap: 90
OS2WinAscent: 0
OS2WinAOffset: 1
OS2WinDescent: 0
OS2WinDOffset: 1
HheadAscent: 0
HheadAOffset: 1
HheadDescent: 0
HheadDOffset: 1
OS2Vendor: 'PfEd'
Lookup: 4 0 0 "'ccmp' Znamenny Ligatures"  {"'ccmp' Znamenny Ligatures 0-1"  } ['ccmp' ('DFLT' <'dflt' > 'latn' <'dflt' > ) ]
Lookup: 260 0 0 "'mark' Mark Positioning"  {"'mark' Mark Positioning-1"  } ['mark' ('DFLT' <'dflt' > 'latn' <'dflt' > ) ]
MarkAttachClasses: 1
DEI: 91125

StartChar: uniEE73
Encoding: 61043 61043 0
Width: 611
VWidth: 0
Flags: W
HStem: 160 24<102.169 178.331> 229 24<439.926 553.246>
VStem: 40 57<186.182 253.02> 261 37<239.721 266.27>
LayerCount: 2
Fore
SplineSet
298 276 m 1
 307 258 320 231 328 220 c 1
 368 232 470 253 528 253 c 0
 554 253 571 249 571 239 c 0
 572 222 564 217 554 217 c 0
 538 217 516 229 516 229 c 1
 455 229 243 163 120 160 c 1
 72 160 40 171 40 202 c 0
 41 242 67 266 96 266 c 0
 103 266 105 262 105 257 c 0
 105 246 97 228 97 212 c 0
 97 197 105 184 136 184 c 0
 148 184 163 185 181 188 c 1
 159 235 l 1
 183 245 185 244 204 252 c 1
 215 239 218 226 234 199 c 1
 249 202 265 206 282 210 c 1
 274 226 l 2
 267 239 265 251 261 264 c 1
 298 276 l 1
EndSplineSet
Validated: 1
EndChar

StartChar: uniEE70
Encoding: 61040 61040 1
Width: 709
VWidth: 0
Flags: W
HStem: 254 35<569.875 668.919>
DStem2: 120 134 139 99 0.954201 0.299166<-2.3985 566.667>
AnchorPoint: "Podchashie" 228 74 basechar 0
AnchorPoint: "Tonal" 272 228 basechar 0
LayerCount: 2
Fore
SplineSet
40 167 m 1
 51 170 63 172 73 172 c 0
 88 172 102 168 110 155 c 0
 115 146 120 134 120 134 c 25
 608 287 l 18
 613 289 629 289 641 289 c 0
 645 289 648 289 651 289 c 8
 660 289 670 289 669 275 c 1
 670 255 662 254 656 254 c 0
 652 254 649 254 645 254 c 24
 628 254 622 253 601 248 c 1
 486 212 343 170 139 99 c 8
 130 97 125 93 115 93 c 27
 89 93 48 159 40 167 c 1
EndSplineSet
Validated: 1
EndChar

StartChar: uniEE7B
Encoding: 61051 61051 2
Width: 400
VWidth: 0
Flags: W
HStem: 134 92<98.2969 140> 140 99<305 342> 185 41<43.1775 88.6264> 214 25<317.417 358.042>
VStem: 81 77<142.439 173.585>
DStem2: 200 184 228 162 0.895365 0.445334<-13.3422 53.2202> 283 221 221 244 0.586697 -0.809807<-58.7881 -9.19709 30.8057 77.6033>
LayerCount: 2
Fore
SplineSet
107 134 m 0x88
 95 134 84 140 81 156 c 0
 79 165 87 165 95 174 c 0
 102 181 95 187 89 190 c 0
 81 193 75 182 67 185 c 0
 54 190 51 199 40 208 c 1
 40 209 l 0
 40 221 61 226 81 226 c 0x28
 121 226 155 202 158 171 c 1
 158 150 127 134 107 134 c 0x88
342 239 m 0x48
 352 239 360 227 360 219 c 0
 360 217 359 215 356 214 c 0x18
 339 210 321 203 301 196 c 1
 325 162 l 2
 326 160 327 158 327 157 c 0
 327 148 315 140 305 140 c 0
 300 140 295 142 292 146 c 2
 267 181 l 1
 254 175 242 169 228 162 c 0
 221 159 212 151 200 153 c 0
 193 154 188 160 188 168 c 0
 188 175 193 180 200 184 c 0
 218 193 233 200 248 207 c 1
 221 244 l 2
 220 245 220 247 220 248 c 0
 220 257 233 265 243 265 c 0
 248 265 252 264 255 260 c 2
 283 221 l 1
 293 225 325 239 342 239 c 0x48
EndSplineSet
Validated: 1
EndChar

StartChar: uniEE81
Encoding: 61057 61057 3
Width: 283
VWidth: 0
Flags: W
HStem: 122 38<109.639 188.729> 255 48<100.062 155.501>
VStem: 98 59<257.231 300.521> 201 42<175.657 225.884>
LayerCount: 2
Fore
SplineSet
157 273 m 0
 157 262 142 255 131 255 c 0
 113 255 98 272 98 286 c 0
 98 297 110 303 122 303 c 0
 139 303 157 291 157 273 c 0
220 226 m 27
 233 226 243 216 243 201 c 0
 243 178 242 166 226 148 c 8
 207 127 186 122 157 122 c 19
 111 122 85 139 62 164 c 8
 49 178 40 191 40 206 c 0
 40 216 52 223 63 223 c 0
 67 223 71 222 74 220 c 8
 93 208 94 190 112 177 c 24
 126 166 136 160 154 160 c 27
 168 160 179 164 188 175 c 24
 199 189 191 204 201 219 c 24
 205 226 212 226 220 226 c 27
EndSplineSet
Validated: 1
EndChar

StartChar: uniEE87
Encoding: 61063 61063 4
Width: 294
VWidth: 0
Flags: W
HStem: 106 141<147 153>
VStem: 40 214
LayerCount: 2
Fore
SplineSet
133 233 m 0
 133 244 147 247 157 247 c 0
 166 247 171 244 177 237 c 0
 185 229 254 164 254 134 c 0
 254 124 248 121 241 121 c 0
 232 121 222 125 217 130 c 8
 183 159 168 181 141 217 c 16
 137 222 133 227 133 233 c 0
40 230 m 0
 40 240 53 244 61 244 c 0
 76 244 81 241 88 232 c 16
 96 221 161 151 161 120 c 0
 161 111 153 106 144 106 c 0
 135 106 127 111 120 118 c 8
 86 151 73 175 47 214 c 16
 44 220 40 225 40 230 c 0
EndSplineSet
Validated: 1
EndChar

StartChar: uniEE72
Encoding: 61042 61042 5
Width: 461
VWidth: 0
Flags: W
HStem: 158 50<278.04 419.989> 278 65<107.578 139.297>
LayerCount: 2
Fore
SplineSet
97 343 m 26
 127 343 l 25
 127 343 134 337 134 331 c 3
 134 318 147 319 156 319 c 3
 177 319 173 327 191 327 c 3
 215 327 228 327 252 327 c 25
 126 154 l 25
 126 147 126 142 126 135 c 0
 126 135 126 135 127 135 c 0
 132 135 170 153 199 166 c 1
 260 181 303 193 355 208 c 1
 370 208 403 208 412 208 c 2
 413 208 l 2
 419 209 421 202 421 194 c 2
 421 187 l 2
 421 182 421 176 420 170 c 0
 420 160 405 158 387 158 c 0
 375 158 363 158 353 158 c 0
 347 158 342 158 338 158 c 0
 287 147 183 125 132 110 c 0
 120 107 85 76 60 76 c 0
 52 76 40 77 40 91 c 0
 40 97 46 116 57 130 c 1
 95 192 117 227 146 278 c 1
 110 283 104 307 85 332 c 24
 81 337 91 343 97 343 c 26
EndSplineSet
Validated: 1
EndChar

StartChar: uniEE7A
Encoding: 61050 61050 6
Width: 198
VWidth: 0
Flags: W
HStem: 130 92<98.2969 140> 181 41<42.0698 88.6272>
VStem: 81 77<138.439 169.585>
LayerCount: 2
Fore
SplineSet
107 130 m 4xa0
 95 130 84 136 81 152 c 12
 79 161 87 161 96 170 c 4
 102 176 95 183 89 185 c 28
 81 188 76 178 68 181 c 28
 55 185 51 194 40 203 c 21
 40 204 l 4
 40 217 61 222 81 222 c 4x60
 121 222 155 198 158 167 c 5
 158 146 127 130 107 130 c 4xa0
EndSplineSet
Validated: 1
EndChar

StartChar: uniEE75
Encoding: 61045 61045 7
Width: 230
VWidth: 0
Flags: W
HStem: 153 56<104.209 175.126>
VStem: 40 63<192.637 246.813>
LayerCount: 2
Fore
SplineSet
103 192 m 13
 129 198 142 209 170 209 c 4
 181 209 190 205 190 189 c 4
 190 175 131 153 92 153 c 4
 76 153 64 157 60 166 c 4
 52 188 43 212 40 237 c 5
 56 247 72 250 79 250 c 4
 98 250 94 227 103 192 c 13
EndSplineSet
Validated: 1
EndChar

StartChar: uniEE78
Encoding: 61048 61048 8
Width: 302
VWidth: 0
Flags: W
HStem: 80 239
VStem: 40 222
LayerCount: 2
Fore
SplineSet
40 297 m 0
 40 310 54 319 69 319 c 0
 73 319 77 318 81 314 c 0
 147 230 183 184 259 110 c 0
 261 107 262 104 262 101 c 0
 262 92 254 82 244 80 c 1
 218 81 217 87 205 99 c 1
 143 153 111 200 53 272 c 0
 46 280 40 286 40 297 c 0
EndSplineSet
Validated: 1
EndChar

StartChar: uniEE7C
Encoding: 61052 61052 9
Width: 355
VWidth: 0
Flags: W
HStem: 132 53<246.666 314.107> 150 92<98.2969 140> 201 41<43.1775 88.6264> 221 50<203.353 264.025>
VStem: 81 77<158.439 189.585> 201 65<224.882 267.063> 245 70<134.221 181.739>
LayerCount: 2
Fore
SplineSet
315 158 m 0x8a
 315 138 295 132 279 132 c 0
 259 132 245 148 245 162 c 0
 245 175 257 185 278 185 c 0
 295 185 315 172 315 158 c 0x8a
227 271 m 0x1c
 246 271 266 256 266 241 c 0
 266 227 253 221 240 221 c 0
 220 221 201 237 201 252 c 0
 201 261 210 271 227 271 c 0x1c
107 150 m 4x48
 95 150 84 156 81 172 c 4
 79 181 87 181 95 190 c 4
 102 197 95 203 89 206 c 4
 81 209 75 198 67 201 c 4
 54 206 51 215 40 224 c 5
 40 225 l 4
 40 237 61 242 81 242 c 4x28
 121 242 155 218 158 187 c 5
 158 166 127 150 107 150 c 4x48
EndSplineSet
Validated: 1
EndChar

StartChar: uniEE80
Encoding: 61056 61056 10
Width: 283
VWidth: 0
Flags: W
HStem: 122 38<109.639 188.729>
VStem: 201 42<175.657 225.884>
LayerCount: 2
Fore
SplineSet
220 226 m 27
 233 226 243 216 243 201 c 0
 243 178 242 166 226 148 c 8
 207 127 186 122 157 122 c 19
 111 122 85 139 62 164 c 8
 49 178 40 191 40 206 c 0
 40 216 52 223 63 223 c 0
 67 223 71 222 74 220 c 8
 93 208 94 190 112 177 c 24
 126 166 136 160 154 160 c 27
 168 160 179 164 188 175 c 24
 199 189 191 204 201 219 c 24
 205 226 212 226 220 226 c 27
EndSplineSet
Validated: 1
EndChar

StartChar: uniEE84
Encoding: 61060 61060 11
Width: 418
VWidth: 0
Flags: W
HStem: 79 42<118.516 171.954> 102 43<222.286 273.85>
VStem: 115 57<79.8259 117.387> 222 52<102.39 144.438>
DStem2: 52 159 193 172 0.965824 0.259199<-4.28912 318.829>
LayerCount: 2
Fore
SplineSet
222 128 m 0x70
 222 141 233 145 244 145 c 0x70
 261 145 274 139 274 121 c 0xb0
 274 106 261 102 250 102 c 0
 233 102 222 110 222 128 c 0x70
172 101 m 0
 172 85 156 79 141 79 c 0
 135 79 122 79 115 90 c 1
 115 94 114 106 118 108 c 0
 129 114 141 121 153 121 c 0xb0
 162 121 172 115 172 101 c 0
362 241 m 0
 372 241 378 234 378 231 c 0
 378 227 375 223 370 219 c 1
 252 189 280 196 193 172 c 8
 145 158 104 146 57 135 c 0
 56 135 55 135 54 135 c 0
 47 135 40 140 40 147 c 0
 40 151 48 158 52 159 c 8
 105 177 162 192 188 200 c 0
 201 204 323 241 362 241 c 0
EndSplineSet
Validated: 1
EndChar

StartChar: uniEE7E
Encoding: 61054 61054 12
Width: 640
VWidth: 0
Flags: W
HStem: 138 92<98.2969 140> 176 75<298.211 335.614> 189 41<43.1775 88.6264> 217 34<253.14 289.719>
VStem: 81 77<146.439 177.585> 284 62<180.683 208.631>
LayerCount: 2
Fore
SplineSet
417 278 m 0x0c
 415 281 414 284 414 287 c 0
 414 298 430 308 443 308 c 0
 449 308 454 306 458 300 c 0
 519 229 531 189 597 111 c 0
 599 108 600 105 600 102 c 0
 600 91 586 81 573 81 c 0
 567 81 560 83 556 89 c 0
 466 223 451 240 417 278 c 0x0c
305 176 m 0x4c
 295 176 286 181 284 194 c 0
 282 201 289 201 296 209 c 0
 301 214 295 219 290 221 c 0
 284 223 279 215 273 217 c 0
 262 221 259 228 251 236 c 1
 251 237 l 0
 251 247 267 251 284 251 c 0x1c
 316 251 344 231 346 206 c 1
 346 189 321 176 305 176 c 0x4c
107 138 m 0x8c
 95 138 84 144 81 160 c 0
 79 169 87 169 95 178 c 0
 102 185 95 191 89 194 c 0
 81 197 75 186 67 189 c 0
 54 194 51 203 40 212 c 1
 40 213 l 0
 40 225 61 230 81 230 c 0x2c
 121 230 155 206 158 175 c 1
 158 154 127 138 107 138 c 0x8c
EndSplineSet
Validated: 1
EndChar

StartChar: uniEE89
Encoding: 61065 61065 13
Width: 261
VWidth: 0
Flags: W
HStem: 174 26<41 77.5288> 195 50<155.484 213.768>
VStem: 90 53<231 282.312> 110 51<153.75 188.945>
LayerCount: 2
Fore
SplineSet
195 245 m 0x60
 203 245 220 235 220 227 c 0
 220 208 155 195 155 195 c 1x60
 156 187 161 176 161 167 c 0
 161 155 151 153 138 153 c 0
 116 153 121 175 110 189 c 25
 90 183 110 189 58 174 c 0
 50 172 40 180 40 189 c 0
 40 193 41 196 41 200 c 1x90
 60 210 73 210 93 218 c 1
 93 230 90 237 90 246 c 0
 90 263 98 283 118 283 c 0
 122 283 127 282 132 281 c 0
 143 278 137 251 143 231 c 1
 159 235 178 245 195 245 c 0x60
EndSplineSet
Validated: 1
EndChar

StartChar: uniEE8B
Encoding: 61067 61067 14
Width: 279
VWidth: 0
Flags: W
HStem: 109 31<129.005 157.816> 277 39<131.003 159>
VStem: 91 37<140.369 202 242 275.738> 160 39<151.476 214>
DStem2: 91 234 91 202 0.985821 0.167799<-54.3474 -5.36958 39.7894 64.6657 102.6 131.844>
LayerCount: 2
Fore
SplineSet
238 242 m 0
 238 223 211 223 196 220 c 1
 197 207 199 193 199 180 c 0
 199 141 187 109 140 109 c 0
 124 109 109 110 102 122 c 0
 92 138 91 152 91 169 c 0
 91 173 91 178 91 182 c 0
 91 187 91 193 91 199 c 0
 91 200 91 201 91 202 c 1
 80 200 68 198 55 196 c 0
 47 194 40 198 40 209 c 0
 40 218 46 226 54 227 c 0
 67 230 80 232 91 234 c 1
 92 256 94 277 104 296 c 0
 112 312 132 316 152 316 c 0
 184 316 188 280 191 254 c 1
 200 255 210 259 221 259 c 0
 230 259 238 253 238 242 c 0
128 173 m 0
 128 170 128 166 128 163 c 0
 128 148 135 148 138 140 c 1
 147 140 157 145 158 151 c 0
 160 161 160 181 160 195 c 0
 160 203 160 208 160 214 c 1
 150 212 140 210 129 208 c 1
 129 198 128 186 128 173 c 0
160 248 m 1
 159 267 157 277 149 277 c 0
 135 275 131 267 131 259 c 0
 131 254 130 248 130 242 c 1
 140 244 150 246 160 248 c 1
EndSplineSet
Validated: 1
EndChar

StartChar: uniEE8D
Encoding: 61069 61069 15
Width: 205
VWidth: 0
Flags: W
VStem: 40 64<140.685 188.822> 49 53<272.22 320.783> 86 50<-163.771 113.79>
LayerCount: 2
Fore
SplineSet
110 -164 m 0x20
 96 -164 85 -159 85 -147 c 2
 86 2 l 0x20
 86 20 87 30 87 49 c 0
 87 75 92 89 95 115 c 1
 69 117 40 127 40 153 c 0x80
 40 188 83 192 103 237 c 1
 77 252 49 258 49 288 c 0
 49 321 84 339 100 357 c 1
 100 352 101 350 101 345 c 0
 101 339 110 337 110 331 c 0
 110 313 102 304 102 286 c 0x40
 102 276 115 272 125 272 c 0
 142 272 165 271 165 254 c 0
 165 210 104 204 104 160 c 0x80
 104 137 149 143 149 120 c 0
 149 92 136 78 136 51 c 2
 136 2 l 1
 135 -147 l 2
 135 -155 127 -164 110 -164 c 0x20
EndSplineSet
Validated: 1
EndChar

StartChar: uniEE8F
Encoding: 61071 61071 16
Width: 291
VWidth: 0
Flags: W
HStem: 114 155
VStem: 42 208
DStem2: 46 220 66 188 0.92807 0.372406<-11.4383 149.428> 106 146 125 114 0.927846 0.372962<-12.4161 148.513>
LayerCount: 2
Fore
SplineSet
106 146 m 0
 167 170 175 174 228 195 c 0
 237 199 247 194 250 186 c 0
 254 177 253 166 244 162 c 0
 194 142 173 132 125 114 c 0
 116 110 105 116 101 125 c 0
 98 133 98 143 106 146 c 0
46 220 m 0
 108 244 116 248 169 269 c 0
 178 273 187 268 191 260 c 0
 195 251 193 240 184 236 c 0
 135 216 114 206 66 188 c 0
 56 184 46 190 42 199 c 0
 39 207 39 217 46 220 c 0
EndSplineSet
Validated: 1
EndChar

StartChar: uniEE93
Encoding: 61075 61075 17
Width: 525
VWidth: 0
Flags: W
HStem: 121 34<92.0974 159.703> 156 35<177.766 247.816> 201 34<40.4608 107.508> 236 35<125.487 196.819>
DStem2: 342 312 314 270 0.645198 -0.764016<-11.4404 233.184>
LayerCount: 2
Fore
SplineSet
301 295 m 0
 301 308 316 317 330 317 c 0
 334 317 339 316 342 312 c 0
 381 265 424 217 474 153 c 1
 481 144 484 138 485 127 c 0
 485 118 476 111 467 111 c 0
 449 111 442 122 430 134 c 1
 352 229 341 240 314 270 c 0
 307 278 301 284 301 295 c 0
98 155 m 0
 162 172 170 175 226 191 c 0
 227 191 229 191 230 191 c 0
 241 191 248 180 248 171 c 0
 248 164 245 158 237 156 c 0
 186 142 164 134 114 121 c 0
 113 121 111 121 110 121 c 0
 101 121 94 127 92 135 c 0
 90 143 90 153 98 155 c 0
59 201 m 0
 48 201 40 210 40 223 c 0
 40 229 42 234 48 235 c 0
 112 253 119 255 175 271 c 0
 177 271 178 271 180 271 c 0
 190 271 197 261 197 251 c 0
 197 244 194 238 187 236 c 0
 136 222 113 215 64 202 c 0
 62 201 61 201 59 201 c 0
EndSplineSet
Validated: 1
EndChar

StartChar: uniEE9A
Encoding: 61082 61082 18
Width: 836
VWidth: 0
Flags: W
HStem: 80 33<40.6325 87.8568 230.401 261.607>
DStem2: 47 113 66 81 0.932637 0.360815<0.304814 126.2> 117 58 137 26 0.929881 0.367861<0.0362091 138.26>
AnchorPoint: "Podchashie" 449 98 basechar 0
AnchorPoint: "Tonal" 447 282 basechar 0
LayerCount: 2
Fore
SplineSet
783 374 m 0
 792 374 795 370 796 360 c 0
 796 352 787 348 779 345 c 0
 605 271 483 215 329 155 c 9
 320 157 311 153 307 160 c 24
 303 170 306 181 315 185 c 0
 459 244 559 284 764 369 c 0
 768 372 777 374 783 374 c 0
117 58 m 0
 179 82 186 86 240 107 c 0
 242 108 244 108 246 108 c 0
 256 108 264 97 264 87 c 0
 264 82 261 77 255 74 c 0
 206 54 184 44 137 26 c 0
 134 25 132 25 130 25 c 0
 123 25 115 30 113 37 c 0
 110 45 109 55 117 58 c 0
60 80 m 0
 49 80 40 89 40 102 c 0
 40 107 42 111 47 113 c 0
 108 137 106 135 159 157 c 0
 161 158 163 158 165 158 c 0
 176 158 184 147 184 137 c 0
 184 131 181 126 175 124 c 0
 125 104 114 99 66 81 c 0
 64 80 62 80 60 80 c 0
EndSplineSet
Validated: 1
EndChar

StartChar: uniEE9D
Encoding: 61085 61085 19
Width: 982
VWidth: 0
Flags: W
HStem: 124 55<535.682 594.505> 155 53<692.157 738.536> 322 29<881.32 941.897>
VStem: 533 63<127.652 176.554> 691 48<155.517 207.101>
DStem2: 47 155 64 122 0.959732 0.280918<2.01127 126.151> 113 95 130 62 0.954615 0.297841<1.37423 136.923>
LayerCount: 2
Fore
SplineSet
691 184 m 0x78
 691 198 708 208 719 208 c 0
 736 208 739 192 739 178 c 0
 739 165 729 155 717 155 c 0
 703 155 691 170 691 184 c 0x78
533 157 m 0
 533 172 547 179 560 179 c 0
 579 179 596 167 596 148 c 0
 596 133 585 124 571 124 c 0xb8
 552 124 533 139 533 157 c 0
928 351 m 0
 938 351 942 347 942 338 c 0
 942 328 933 326 924 322 c 0
 744 264 535 207 378 163 c 9
 369 166 359 162 356 170 c 24
 353 180 357 191 366 194 c 0
 536 246 688 284 910 348 c 0
 914 350 922 351 928 351 c 0
113 95 m 0
 176 114 184 117 239 134 c 0
 241 135 243 135 244 135 c 0
 255 135 262 124 262 114 c 0
 262 108 259 102 252 100 c 0
 201 84 179 76 130 62 c 0
 128 61 126 61 125 61 c 0
 116 61 109 67 107 75 c 0
 105 83 105 93 113 95 c 0
64 122 m 0
 62 121 60 121 59 121 c 0
 48 121 40 131 40 143 c 0
 40 149 42 154 47 155 c 0x78
 111 174 108 173 163 190 c 0
 165 191 166 191 168 191 c 0
 178 191 186 180 186 170 c 0
 186 164 183 158 176 156 c 0
 125 140 113 136 64 122 c 0
EndSplineSet
Validated: 1
EndChar

StartChar: uniEE9E
Encoding: 61086 61086 20
Width: 892
VWidth: 0
Flags: W
HStem: 88 76<88.2108 125.821> 114 76<236.211 273.821> 130 34<41.6206 79.7195> 156 34<189.621 227.719>
VStem: 74 63<93.0625 120.631> 222 63<119.062 146.631>
DStem2: 384 212 396 186 0.981386 0.192046<-12.5562 456.573>
LayerCount: 2
Fore
SplineSet
830 311 m 0x0c
 839 311 852 306 852 295 c 0
 852 286 841 280 831 278 c 0
 662 245 560 223 396 186 c 9
 388 188 379 184 375 192 c 0
 371 199 376 210 384 212 c 24
 553 257 621 266 821 310 c 0
 824 311 827 311 830 311 c 0x0c
243 114 m 0x4c
 233 114 224 119 222 132 c 8
 220 139 226 139 234 147 c 0
 239 152 233 158 228 160 c 24
 222 162 217 153 211 156 c 24
 200 160 197 167 188 174 c 17
 188 175 l 0
 188 186 205 190 222 190 c 0x1c
 254 190 282 170 285 145 c 1
 285 127 259 114 243 114 c 0x4c
95 88 m 0x8c
 85 88 76 93 74 106 c 8
 72 113 78 113 86 121 c 0
 91 126 85 132 80 134 c 24
 74 136 69 127 63 130 c 24
 52 134 49 141 40 148 c 17
 40 149 l 0
 40 160 57 164 74 164 c 0x2c
 106 164 134 144 137 119 c 1
 137 101 111 88 95 88 c 0x8c
EndSplineSet
Validated: 1
EndChar

StartChar: uniEE9F
Encoding: 61087 61087 21
Width: 892
VWidth: 0
Flags: W
HStem: 88 76<88.2108 125.821> 114 76<236.211 273.821> 124 55<528.886 587.57> 130 34<41.6206 79.7195> 155 54<685.402 731.429> 156 34<189.621 227.719>
VStem: 74 63<93.0625 120.631> 222 63<119.062 146.631> 526 63<127.838 176.572> 684 48<155.551 208.047>
DStem2: 384 212 396 186 0.981386 0.192046<-12.5562 456.573>
LayerCount: 2
Fore
SplineSet
684 185 m 0x0bc0
 684 199 701 209 712 209 c 0
 729 209 732 192 732 178 c 0
 732 166 722 155 710 155 c 0
 696 155 684 171 684 185 c 0x0bc0
526 157 m 0
 526 173 540 179 553 179 c 0
 572 179 589 167 589 149 c 0
 589 133 578 124 564 124 c 0x23c0
 545 124 526 140 526 157 c 0
830 311 m 0
 839 311 852 306 852 295 c 0
 852 286 841 280 831 278 c 0
 662 245 560 223 396 186 c 9
 388 188 379 184 375 192 c 0
 371 199 376 210 384 212 c 24
 553 257 621 266 821 310 c 0
 824 311 827 311 830 311 c 0
243 114 m 0x43c0
 233 114 224 119 222 132 c 8
 220 139 226 139 234 147 c 0
 239 152 233 158 228 160 c 24
 222 162 217 153 211 156 c 24
 200 160 197 167 188 174 c 17
 188 175 l 0
 188 186 205 190 222 190 c 0x07c0
 254 190 282 170 285 145 c 1
 285 127 259 114 243 114 c 0x43c0
95 88 m 0x83c0
 85 88 76 93 74 106 c 8
 72 113 78 113 86 121 c 0
 91 126 85 132 80 134 c 24
 74 136 69 127 63 130 c 24
 52 134 49 141 40 148 c 17
 40 149 l 0
 40 160 57 164 74 164 c 0x13c0
 106 164 134 144 137 119 c 1
 137 101 111 88 95 88 c 0x83c0
EndSplineSet
Validated: 1
EndChar

StartChar: uniEEA6
Encoding: 61094 61094 22
Width: 744
VWidth: 0
Flags: W
HStem: 94 76<88.2108 125.821> 136 34<41.6206 79.7195>
VStem: 74 63<99.0625 126.631>
DStem2: 236 192 248 166 0.981386 0.192046<-12.5562 456.573>
LayerCount: 2
Fore
SplineSet
682 291 m 0x20
 691 291 704 286 704 275 c 0
 704 266 693 260 683 258 c 0
 514 225 412 203 248 166 c 9
 240 168 231 164 227 172 c 0
 223 179 228 190 236 192 c 24
 405 237 473 246 673 290 c 0
 676 291 679 291 682 291 c 0x20
95 94 m 0xa0
 85 94 76 99 74 112 c 8
 72 119 78 119 86 127 c 0
 91 132 85 138 80 140 c 24
 74 142 69 133 63 136 c 24
 52 140 49 147 40 154 c 17
 40 155 l 0
 40 166 57 170 74 170 c 0x60
 106 170 134 150 137 125 c 1
 137 107 111 94 95 94 c 0xa0
EndSplineSet
Validated: 1
EndChar

StartChar: uniEEB0
Encoding: 61104 61104 23
Width: 894
VWidth: 0
Flags: W
HStem: 172 35<117.797 185.637> 301 34<770.295 853.848>
DStem2: 111 103 128 70 0.947001 0.32123<0.487296 132.171 265.729 754.061>
AnchorPoint: "Podchashie" 444 98 basechar 0
AnchorPoint: "Tonal" 515.252 305.618 basechar 0
LayerCount: 2
Fore
SplineSet
281 229 m 1
 292 232 304 234 314 234 c 0
 329 234 343 230 351 217 c 0
 356 208 357 204 361 196 c 25
 792 334 l 18
 795 334 820 335 829 335 c 0
 843 335 855 333 854 319 c 1
 855 303 846 301 834 301 c 0
 829 301 826 301 823 301 c 0
 817 301 813 301 800 298 c 0
 686 262 584 232 380 161 c 8
 371 158 366 155 356 155 c 27
 315 155 289 221 281 229 c 1
111 103 m 0
 174 122 182 125 237 143 c 0
 239 143 241 143 242 143 c 0
 253 143 260 132 260 123 c 0
 260 116 257 111 250 108 c 0
 199 93 177 85 128 70 c 0
 126 69 124 69 123 69 c 0
 114 69 107 75 105 83 c 0
 103 91 103 101 111 103 c 0
64 138 m 0
 62 138 60 137 59 137 c 0
 48 137 40 148 40 159 c 0
 40 165 42 170 47 172 c 0
 111 191 108 189 163 207 c 0
 165 207 166 207 168 207 c 0
 178 207 186 196 186 186 c 0
 186 180 183 175 176 172 c 0
 125 157 113 153 64 138 c 0
EndSplineSet
Validated: 1
EndChar

StartChar: uniEEB5
Encoding: 61109 61109 24
Width: 1000
VWidth: 0
Flags: W
HStem: 62 300
DStem2: 399 205 418 170 0.957868 0.28721<-2.74824 561.067>
AnchorPoint: "Podchashie" 506 98 basechar 0
AnchorPoint: "Tonal" 577.252 305.618 basechar 0
LayerCount: 2
Fore
SplineSet
170 211 m 0
 171 222 186 224 195 222 c 0
 205 221 209 217 214 210 c 0
 220 200 277 132 277 101 c 0
 277 90 272 86 265 86 c 0
 256 86 244 93 239 98 c 8
 209 132 198 155 175 195 c 16
 172 200 169 205 170 211 c 0
154 76 m 0
 154 67 147 62 138 62 c 0
 128 62 120 67 113 75 c 8
 81 110 69 135 46 176 c 16
 43 181 40 186 40 191 c 0
 40 202 54 205 62 205 c 0
 77 204 81 200 88 191 c 16
 95 180 154 108 154 76 c 0
317 242 m 1
 328 245 339 248 349 248 c 0
 364 248 381 239 389 226 c 0
 394 217 395 213 399 205 c 25
 599 264 742 310 913 357 c 0
 923 361 931 362 938 362 c 0
 954 362 960 352 959 342 c 1
 959 327 851 296 834 292 c 1
 719 256 630 234 418 170 c 0
 409 167 404 164 394 164 c 27
 351 164 325 234 317 242 c 1
EndSplineSet
Validated: 1
EndChar

StartChar: uniEEBD
Encoding: 61117 61117 25
Width: 662
VWidth: 0
Flags: HW
HStem: 53.2056 58.5169<55.43 98.1168> 175.722 56.7625<583.291 620.3> 175.722 23.5933<569.87 582.931>
VStem: 569.781 52.2616<178.656 199.202>
DStem2: 107.996 82.0684 108.934 55.1592 0.952609 0.304196<-7.93003 489.547>
LayerCount: 2
Fore
SplineSet
41 98 m 0xb0
 41 104 59 112 69 112 c 0
 87 112 92 91 108 82 c 1
 299 143 89 76 571 230 c 0
 576 231 582 232 589 232 c 0
 601 232 622 224 622 200 c 0
 622 188 604 176 584 176 c 0xd0
 577 176 572 178 570 186 c 1
 567 191 568 197 575 199 c 8
 579 200 584 201 583 205 c 16
 581 210 576 209 570 207 c 0
 387 147 193 81 109 55 c 0
 105 54 101 53 97 53 c 0
 90 53 84 56 77 60 c 8
 63 69 41 82 41 98 c 0xb0
EndSplineSet
EndChar

StartChar: uniEEBF
Encoding: 61119 61119 26
Width: 364
VWidth: 0
Flags: W
HStem: 114 36<246.384 276> 221 28<58.3784 230.739>
VStem: 276 48<150 193.841>
LayerCount: 2
Fore
SplineSet
140 249 m 0
 222 249 324 216 324 140 c 0
 324 124 316 116 287 114 c 1
 254 114 237 147 219 149 c 1
 220 155 216 168 233 168 c 0
 259 168 261 150 275 150 c 1
 276 154 276 157 276 161 c 0
 276 206 203 221 169 221 c 0
 130 221 104 207 62 207 c 19
 52 207 40 207 40 221 c 0
 40 241 102 249 140 249 c 0
EndSplineSet
Validated: 1
EndChar

StartChar: uniEE50
Encoding: 61008 61008 27
Width: 0
VWidth: 0
GlyphClass: 4
Flags: W
HStem: 222 58<-98.3066 -37.3268>
VStem: -100 64<224.328 275.953>
AnchorPoint: "Tonal" -64.9814 220.049 mark 0
LayerCount: 2
Fore
SplineSet
-76 280 m 0
 -55 280 -36 264 -36 253 c 0
 -36 236 -48 222 -65 222 c 27
 -84 222 -100 235 -100 254 c 19
 -100 268 -92 280 -76 280 c 0
EndSplineSet
Validated: 1
EndChar

StartChar: uniEE51
Encoding: 61009 61009 28
Width: 0
VWidth: 0
GlyphClass: 4
Flags: W
HStem: 184 58<-213.102 -152.327> 224 58<-103.102 -42.3268>
VStem: -215 64<186.469 238.152> -105 64<226.469 278.152>
AnchorPoint: "Tonal" -179.964 181.049 mark 0
LayerCount: 2
Fore
SplineSet
-81 282 m 0x70
 -60 282 -41 267 -41 255 c 0
 -41 238 -53 224 -70 224 c 27
 -89 224 -105 238 -105 256 c 19
 -105 270 -97 282 -81 282 c 0x70
-191 242 m 0xb0
 -170 242 -151 227 -151 215 c 0
 -151 198 -163 184 -180 184 c 27
 -199 184 -215 198 -215 216 c 19
 -215 230 -207 242 -191 242 c 0xb0
EndSplineSet
Validated: 1
EndChar

StartChar: uniEE52
Encoding: 61010 61010 29
Width: 0
VWidth: 0
Flags: W
HStem: 184 58<-310.097 -249.331> 224 58<-200.097 -139.331> 268 58<-101.097 -40.3306>
VStem: -312 64<186.469 238.152> -202 64<226.469 278.152> -103 64<270.469 321.815>
AnchorPoint: "Tonal" -278.473 182.049 mark 0
LayerCount: 2
Fore
SplineSet
-80 326 m 0x3c
 -58 326 -39 310 -39 299 c 0
 -39 282 -52 268 -68 268 c 27
 -87 268 -103 282 -103 300 c 19
 -103 314 -96 326 -80 326 c 0x3c
-179 282 m 0x5c
 -157 282 -138 267 -138 255 c 0
 -138 238 -151 224 -167 224 c 27
 -186 224 -202 238 -202 256 c 19
 -202 270 -195 282 -179 282 c 0x5c
-289 242 m 0x9c
 -267 242 -248 227 -248 215 c 0
 -248 198 -261 184 -277 184 c 27
 -296 184 -312 198 -312 216 c 19
 -312 230 -305 242 -289 242 c 0x9c
EndSplineSet
Validated: 1
EndChar

StartChar: uniEE58
Encoding: 61016 61016 30
Width: 0
VWidth: 0
Flags: W
HStem: 231 86
VStem: -198 158
AnchorPoint: "Tonal" -103.982 242.049 mark 0
LayerCount: 2
Fore
SplineSet
-103 273 m 0
 -142 273 -146 231 -167 231 c 0
 -183 231 -198 251 -198 264 c 1
 -148 314 -121 314 -86 317 c 1
 -67 315 -40 320 -40 294 c 0
 -40 280 -47 267 -62 267 c 0
 -77 267 -87 273 -103 273 c 0
EndSplineSet
Validated: 1
EndChar

StartChar: uniEE76
Encoding: 61046 61046 31
Width: 356
VWidth: 0
Flags: W
HStem: 75 55<104.209 175.126> 170 58<147.898 208.673> 220 58<253.898 314.673>
VStem: 40 63<113.102 168.245> 146 64<172.469 224.152> 252 64<222.469 274.152>
LayerCount: 2
Fore
SplineSet
276 278 m 0xbc
 297 278 316 263 316 251 c 0
 316 234 304 220 287 220 c 27
 268 220 252 234 252 252 c 19
 252 266 260 278 276 278 c 0xbc
170 228 m 0xdc
 191 228 210 213 210 201 c 0
 210 184 198 170 181 170 c 27
 162 170 146 184 146 202 c 19
 146 216 154 228 170 228 c 0xdc
103 113 m 9
 129 120 142 130 170 130 c 0
 181 130 190 127 190 111 c 0
 190 97 131 75 92 75 c 0
 76 75 63 79 60 88 c 0
 52 109 43 134 40 159 c 1
 56 169 71 171 79 171 c 0
 97 171 94 148 103 113 c 9
EndSplineSet
Validated: 1
Ligature2: "'ccmp' Znamenny Ligatures 0-1" uniEE75 uniEE51
EndChar

StartChar: uniEE79
Encoding: 61049 61049 32
Width: 332
VWidth: 0
Flags: W
HStem: 182 53<223.268 291.234> 265 47<167.069 231.513>
VStem: 166 66<267.714 309.461> 222 70<184.72 233.078>
LayerCount: 2
Fore
SplineSet
257 235 m 0xd0
 275 235 292 225 292 209 c 0
 292 192 272 182 255 182 c 0
 237 182 222 196 222 211 c 0
 222 224 236 235 257 235 c 0xd0
166 293 m 0xe0
 166 303 178 312 195 312 c 0
 213 312 232 302 232 286 c 0
 232 273 218 265 202 265 c 0
 185 265 166 277 166 293 c 0xe0
40 297 m 0
 40 310 54 319 69 319 c 0
 73 319 77 318 81 314 c 0
 147 230 183 184 259 110 c 0
 261 107 262 104 262 101 c 0
 262 92 254 82 244 80 c 1
 218 81 217 87 205 99 c 1
 143 153 111 200 53 272 c 0
 46 280 40 286 40 297 c 0
EndSplineSet
Validated: 1
EndChar

StartChar: uniEE7D
Encoding: 61053 61053 33
Width: 306
VWidth: 0
Flags: W
HStem: 150 92<98.2969 140> 201 41<43.1775 88.6264> 221 50<203.353 264.025>
VStem: 81 77<158.439 189.585> 201 65<224.882 267.063>
LayerCount: 2
Fore
SplineSet
227 271 m 0x38
 246 271 266 256 266 241 c 0
 266 227 253 221 240 221 c 0
 220 221 201 237 201 252 c 0
 201 261 210 271 227 271 c 0x38
107 150 m 0x98
 95 150 84 156 81 172 c 0
 79 181 87 181 95 190 c 0
 102 197 95 203 89 206 c 0
 81 209 75 198 67 201 c 0
 54 206 51 215 40 224 c 1
 40 225 l 0
 40 237 61 242 81 242 c 0x58
 121 242 155 218 158 187 c 1
 158 166 127 150 107 150 c 0x98
EndSplineSet
Validated: 1
EndChar

StartChar: uniEE7F
Encoding: 61055 61055 34
Width: 695
VWidth: 0
Flags: W
HStem: 138 92<98.2969 140> 176 75<298.211 335.614> 189 41<43.1775 88.6264> 198 38<521.639 600.73> 217 34<253.14 289.719>
VStem: 81 77<146.439 177.585> 284 62<180.683 208.631> 613 42<251.657 301.895>
LayerCount: 2
Fore
SplineSet
632 302 m 27x0f
 645 302 655 293 655 277 c 0
 655 254 655 242 638 224 c 8
 619 203 598 198 569 198 c 19
 523 198 497 215 474 240 c 8
 462 254 452 268 452 282 c 0
 452 292 464 299 475 299 c 0
 479 299 483 298 486 296 c 8
 505 284 506 267 524 253 c 24
 538 243 549 236 566 236 c 27x17
 581 236 591 240 600 251 c 24
 611 265 604 280 613 295 c 24
 617 302 624 302 632 302 c 27x0f
305 176 m 0x47
 295 176 286 181 284 194 c 0
 282 201 289 201 296 209 c 0
 301 214 295 219 290 221 c 0
 284 223 279 215 273 217 c 0x0f
 262 221 259 228 251 236 c 1x17
 251 237 l 0
 251 247 267 251 284 251 c 0x0f
 316 251 344 231 346 206 c 1
 346 189 321 176 305 176 c 0x47
107 138 m 0x87
 95 138 84 144 81 160 c 0
 79 169 87 169 95 178 c 0
 102 185 95 191 89 194 c 0
 81 197 75 186 67 189 c 0
 54 194 51 203 40 212 c 1
 40 213 l 0
 40 225 61 230 81 230 c 0x27
 121 230 155 206 158 175 c 1
 158 154 127 138 107 138 c 0x87
EndSplineSet
Validated: 1
EndChar

StartChar: uniEE83
Encoding: 61059 61059 35
Width: 418
VWidth: 0
Flags: W
HStem: 97 43<184.31 235.861>
VStem: 184 52<97.4802 139.538>
DStem2: 52 159 193 172 0.965824 0.259199<-4.28912 318.829>
LayerCount: 2
Fore
SplineSet
184 123 m 0
 184 136 195 140 207 140 c 0
 224 140 236 134 236 116 c 0
 236 101 224 97 212 97 c 0
 196 97 184 105 184 123 c 0
362 241 m 0
 372 241 378 234 378 231 c 0
 378 227 375 223 370 219 c 1
 252 189 280 196 193 172 c 8
 145 158 104 146 57 135 c 0
 56 135 55 135 54 135 c 0
 47 135 40 140 40 147 c 0
 40 151 48 158 52 159 c 8
 105 177 162 192 188 200 c 0
 201 204 323 241 362 241 c 0
EndSplineSet
Validated: 1
EndChar

StartChar: uniEE85
Encoding: 61061 61061 36
Width: 418
VWidth: 0
Flags: W
HStem: 77 42<103.516 156.954> 100 43<207.286 258.85> 127 42<302.471 354.956>
VStem: 100 57<77.8259 115.387> 207 52<100.39 142.438> 298 57<127.776 164.781>
DStem2: 52 159 193 172 0.965824 0.259199<-4.28912 318.829>
LayerCount: 2
Fore
SplineSet
355 149 m 0x3c
 355 133 340 127 324 127 c 0
 318 127 305 127 298 138 c 1
 298 141 297 153 302 156 c 0
 312 161 325 169 336 169 c 0
 346 169 355 162 355 149 c 0x3c
207 126 m 0
 207 139 218 143 229 143 c 0x5c
 246 143 259 137 259 119 c 0x9c
 259 104 246 100 235 100 c 0x5c
 218 100 207 108 207 126 c 0
157 99 m 0
 157 83 141 77 126 77 c 0
 120 77 107 77 100 88 c 1
 100 92 99 104 103 106 c 0
 114 112 126 119 138 119 c 0x9c
 147 119 157 113 157 99 c 0
362 241 m 0
 372 241 378 234 378 231 c 0
 378 227 375 223 370 219 c 1
 252 189 280 196 193 172 c 8
 145 158 104 146 57 135 c 0
 56 135 55 135 54 135 c 0
 47 135 40 140 40 147 c 0
 40 151 48 158 52 159 c 8
 105 177 162 192 188 200 c 0
 201 204 323 241 362 241 c 0
EndSplineSet
Validated: 1
EndChar

StartChar: uniEE88
Encoding: 61064 61064 37
Width: 406
VWidth: 0
Flags: W
HStem: 139 92<306.297 348> 190 41<250.07 296.627>
VStem: 289 77<147.008 178.585>
LayerCount: 2
Fore
SplineSet
315 139 m 0xa0
 303 139 292 145 289 161 c 8
 287 170 295 170 304 179 c 0
 310 185 303 192 297 194 c 24
 289 197 284 187 276 190 c 24
 263 194 259 203 248 212 c 17
 248 213 l 0
 248 226 269 231 289 231 c 0x60
 329 231 363 207 366 176 c 1
 366 154 335 139 315 139 c 0xa0
133 233 m 0
 133 244 147 247 157 247 c 0
 166 247 171 244 177 237 c 0
 185 229 254 164 254 134 c 0
 254 124 248 121 241 121 c 0
 232 121 222 125 217 130 c 8
 183 159 168 181 141 217 c 16
 137 222 133 227 133 233 c 0
40 230 m 0
 40 240 53 244 61 244 c 0
 76 244 81 241 88 232 c 16
 96 221 161 151 161 120 c 0
 161 111 153 106 144 106 c 0
 135 106 127 111 120 118 c 8
 86 151 73 175 47 214 c 16
 44 220 40 225 40 230 c 0
EndSplineSet
Validated: 1
EndChar

StartChar: uniEE8E
Encoding: 61070 61070 38
Width: 454
VWidth: 0
Flags: W
VStem: 289 64<140.685 188.822> 299 52<272.23 321.39> 335 50<-163.771 113.79>
DStem2: 46 220 66 188 0.92807 0.372406<-11.4383 149.428> 106 146 125 114 0.927846 0.372962<-12.4161 148.513>
LayerCount: 2
Fore
SplineSet
359 -164 m 0x20
 345 -164 335 -159 335 -147 c 2
 335 2 l 0x20
 336 20 336 30 336 49 c 0
 336 75 341 89 344 115 c 1
 319 117 289 127 289 153 c 0x80
 289 188 332 192 352 237 c 1
 326 252 299 258 299 288 c 0
 299 321 333 339 349 357 c 1
 350 352 351 350 351 345 c 0
 351 339 359 337 359 331 c 0
 359 313 351 304 351 286 c 0x40
 351 276 364 272 375 272 c 0
 391 272 414 271 414 254 c 0
 414 210 353 204 353 160 c 0x80
 353 137 398 143 398 120 c 0
 398 92 385 78 385 51 c 2
 385 2 l 1
 385 -147 l 2
 385 -155 376 -164 359 -164 c 0x20
106 146 m 0
 167 170 175 174 228 195 c 0
 237 199 247 194 250 186 c 0
 254 177 253 166 244 162 c 0
 194 142 173 132 125 114 c 0
 116 110 105 116 101 125 c 0
 98 133 98 143 106 146 c 0
46 220 m 0
 108 244 116 248 169 269 c 0
 178 273 187 268 191 260 c 0
 195 251 193 240 184 236 c 0
 135 216 114 206 66 188 c 0
 56 184 46 190 42 199 c 0
 39 207 39 217 46 220 c 0
EndSplineSet
Validated: 1
EndChar

StartChar: uniEE82
Encoding: 61058 61058 39
Width: 418
VWidth: 0
Flags: W
HStem: 95 49<177.128 205.864>
VStem: 219 20<131.188 149.699>
DStem2: 52 159 193 172 0.965824 0.259199<-4.28912 318.829>
LayerCount: 2
Fore
SplineSet
177 119 m 0
 177 132 184 144 196 144 c 0
 206 144 203 140 206 131 c 0
 208 126 214 128 217 131 c 24
 220 135 216 140 219 144 c 24
 225 150 231 150 239 154 c 17
 247 151 244 138 239 126 c 0
 231 107 214 95 198 95 c 0
 184 95 177 106 177 119 c 0
362 241 m 0
 372 241 378 234 378 231 c 0
 378 227 375 223 370 219 c 1
 252 189 280 196 193 172 c 8
 145 158 104 146 57 135 c 0
 56 135 55 135 54 135 c 0
 47 135 40 140 40 147 c 0
 40 151 48 158 52 159 c 8
 105 177 162 192 188 200 c 0
 201 204 323 241 362 241 c 0
EndSplineSet
Validated: 1
EndChar

StartChar: uniEE90
Encoding: 61072 61072 40
Width: 434
VWidth: 0
Flags: W
HStem: 139 92<333.297 375> 190 41<278.177 323.627>
VStem: 316 77<147.439 178.585>
DStem2: 46 220 66 188 0.929151 0.369701<-11.4704 149.427> 105 146 125 114 0.92807 0.372406<-11.4383 149.428>
LayerCount: 2
Fore
SplineSet
342 139 m 0xa0
 330 139 319 145 316 161 c 8
 314 170 322 170 331 179 c 0
 337 186 330 192 324 195 c 24
 316 198 311 187 303 190 c 24
 290 195 286 204 275 213 c 17
 275 214 l 0
 275 227 296 231 316 231 c 0x60
 356 231 390 207 393 176 c 1
 393 155 362 139 342 139 c 0xa0
105 146 m 0
 167 170 175 174 228 195 c 0
 237 199 246 194 250 186 c 0
 254 177 252 166 243 162 c 0
 194 142 173 132 125 114 c 0
 115 110 105 116 101 125 c 0
 98 133 98 143 105 146 c 0
46 220 m 0
 108 244 115 248 169 269 c 0
 178 273 187 268 191 260 c 0
 195 251 193 240 184 236 c 0
 135 216 113 206 66 188 c 0
 56 184 45 190 42 199 c 0
 39 207 38 217 46 220 c 0
EndSplineSet
Validated: 1
EndChar

StartChar: uniEE91
Encoding: 61073 61073 41
Width: 499
VWidth: 0
Flags: W
HStem: 181 26<279 315.529> 202 50<393.092 453.821>
VStem: 329 52<238 289.492>
DStem2: 46 220 66 188 0.92807 0.372406<-11.4383 149.428> 106 146 125 114 0.927846 0.372962<-12.4161 148.513>
LayerCount: 2
Fore
SplineSet
433 252 m 0x60
 442 252 459 241 459 233 c 0
 459 214 393 202 393 202 c 1x60
 394 194 399 182 399 173 c 0
 399 162 389 160 376 160 c 0
 354 160 359 182 348 196 c 25
 328 190 348 196 296 181 c 0
 289 178 278 186 278 196 c 0
 278 199 279 202 279 207 c 1xa0
 299 217 312 217 331 225 c 1
 332 237 329 243 329 253 c 0
 329 270 336 290 356 290 c 0
 360 290 365 289 370 288 c 0
 381 284 375 257 381 238 c 1
 398 242 416 252 433 252 c 0x60
106 146 m 0
 167 170 175 174 228 195 c 0
 237 199 247 194 250 186 c 0
 254 177 253 166 244 162 c 0
 194 142 173 132 125 114 c 0
 116 110 105 116 101 125 c 0
 98 133 98 143 106 146 c 0
46 220 m 0
 108 244 116 248 169 269 c 0
 178 273 187 268 191 260 c 0
 195 251 193 240 184 236 c 0
 135 216 114 206 66 188 c 0
 56 184 46 190 42 199 c 0
 39 207 39 217 46 220 c 0
EndSplineSet
Validated: 1
EndChar

StartChar: uniEE92
Encoding: 61074 61074 42
Width: 633
VWidth: 0
Flags: W
HStem: 139 92<333.297 375> 164 26<412.177 448.529> 190 41<278.177 323.627 526.218 589.164>
VStem: 316 77<147.439 178.585> 462 52<221 273.491> 481 45<157.423 179>
DStem2: 46 220 66 188 0.929151 0.369701<-11.4704 149.427> 105 146 125 114 0.92807 0.372406<-11.4383 149.428>
LayerCount: 2
Fore
SplineSet
566 235 m 0x38
 575 235 592 225 592 217 c 0
 592 198 526 185 526 185 c 1
 528 177 533 166 533 157 c 0
 533 145 522 143 510 143 c 0
 488 143 492 165 481 179 c 25
 461 173 481 179 429 164 c 0x54
 422 162 412 170 412 179 c 0
 412 183 413 186 412 190 c 1
 432 200 445 200 464 208 c 1
 465 220 462 227 462 236 c 0
 462 254 469 274 489 274 c 0
 494 274 498 273 503 271 c 0
 515 268 509 241 514 221 c 1
 531 226 550 235 566 235 c 0x38
342 139 m 0x90
 330 139 319 145 316 161 c 8
 314 170 322 170 331 179 c 0
 337 186 330 192 324 195 c 24
 316 198 311 187 303 190 c 24
 290 195 286 204 275 213 c 17
 275 214 l 0
 275 227 296 231 316 231 c 0x30
 356 231 390 207 393 176 c 1
 393 155 362 139 342 139 c 0x90
105 146 m 0
 167 170 175 174 228 195 c 0
 237 199 246 194 250 186 c 0
 254 177 252 166 243 162 c 0
 194 142 173 132 125 114 c 0
 115 110 105 116 101 125 c 0
 98 133 98 143 105 146 c 0
46 220 m 0
 108 244 115 248 169 269 c 0
 178 273 187 268 191 260 c 0
 195 251 193 240 184 236 c 0
 135 216 113 206 66 188 c 0
 56 184 45 190 42 199 c 0
 39 207 38 217 46 220 c 0
EndSplineSet
Validated: 1
EndChar

StartChar: uniEE94
Encoding: 61076 61076 43
Width: 618
VWidth: 0
Flags: W
HStem: 121 34<91.1435 159.261> 156 35<176.462 247.765> 172 92<518.297 559.528> 201 34<40.4607 106.952> 222 42<462.458 508.626> 236 35<125.149 196.816>
VStem: 501 77<180.008 211.539>
DStem2: 342 312 314 270 0.642488 -0.766296<-11.4203 232.604>
LayerCount: 2
Fore
SplineSet
527 172 m 0xa2
 515 172 504 178 501 194 c 8
 499 203 507 202 516 212 c 0
 522 218 515 225 509 227 c 24
 501 230 495 219 488 222 c 24
 475 227 471 236 460 245 c 17
 460 246 l 0
 460 259 481 264 501 264 c 0x8a
 541 264 575 239 578 209 c 1
 578 187 547 172 527 172 c 0xa2
301 295 m 0
 301 308 315 317 330 317 c 0
 334 317 338 316 342 312 c 0
 381 265 423 217 473 153 c 1
 481 144 484 138 484 127 c 0
 484 118 476 111 466 111 c 0
 448 111 441 122 429 134 c 1
 352 229 341 240 314 270 c 0
 307 278 301 284 301 295 c 0
98 155 m 0
 162 172 170 175 226 191 c 0
 227 191 229 191 230 191 c 0
 240 191 248 180 248 171 c 0
 248 164 244 158 237 156 c 0xc2
 186 142 163 134 114 121 c 0
 113 121 111 121 109 121 c 0
 101 121 94 127 91 135 c 0
 89 143 90 153 98 155 c 0
59 201 m 0x96
 48 201 40 210 40 223 c 0
 40 229 42 234 47 235 c 0
 111 253 119 255 175 271 c 0
 176 271 178 271 179 271 c 0
 190 271 197 261 197 251 c 0
 197 244 194 238 186 236 c 0
 135 222 113 215 63 202 c 0
 62 201 60 201 59 201 c 0x96
EndSplineSet
Validated: 1
EndChar

StartChar: uniEE96
Encoding: 61078 61078 44
Width: 550
VWidth: 0
Flags: W
HStem: 139 92<333.297 375> 155 92<449.297 491> 190 41<278.177 323.627> 206 41<394.774 439.627>
VStem: 316 77<147.439 178.585> 432 77<163.439 194.585>
DStem2: 46 220 66 188 0.929151 0.369701<-11.4704 149.427> 105 146 125 114 0.92807 0.372406<-11.4383 149.428>
LayerCount: 2
Fore
SplineSet
458 155 m 0x4c
 446 155 435 161 432 177 c 8
 431 186 438 186 447 195 c 0
 453 202 446 208 440 211 c 24
 432 214 427 203 419 206 c 24x1c
 406 211 402 220 392 229 c 17
 392 230 392 230 392 231 c 0x2c
 392 243 413 247 432 247 c 0x1c
 472 247 506 223 509 192 c 1
 509 171 478 155 458 155 c 0x4c
342 139 m 0x8c
 330 139 319 145 316 161 c 8
 314 170 322 170 331 179 c 0
 337 186 330 192 324 195 c 24
 316 198 311 187 303 190 c 24
 290 195 286 204 275 213 c 17
 275 214 l 0
 275 227 296 231 316 231 c 0x2c
 356 231 390 207 393 176 c 1
 393 155 362 139 342 139 c 0x8c
105 146 m 0
 167 170 175 174 228 195 c 0
 237 199 246 194 250 186 c 0
 254 177 252 166 243 162 c 0
 194 142 173 132 125 114 c 0
 115 110 105 116 101 125 c 0
 98 133 98 143 105 146 c 0
46 220 m 0
 108 244 115 248 169 269 c 0
 178 273 187 268 191 260 c 0
 195 251 193 240 184 236 c 0
 135 216 113 206 66 188 c 0
 56 184 45 190 42 199 c 0
 39 207 38 217 46 220 c 0
EndSplineSet
Validated: 1
EndChar

StartChar: uniEE98
Encoding: 61080 61080 45
Width: 521
VWidth: 0
Flags: W
HStem: 93 35<91.0974 168.179> 125 35<171.354 247.816> 148 38<40.0977 136.095 346.853 425.73> 180 35<121.354 197.816>
VStem: 438 42<201.657 251.884>
LayerCount: 2
Fore
SplineSet
457 252 m 27x28
 471 252 480 242 480 227 c 0
 480 204 480 192 463 174 c 8
 444 153 423 148 394 148 c 19
 349 148 322 165 299 190 c 8
 287 204 277 217 277 232 c 0
 277 242 289 249 300 249 c 0
 304 249 308 248 311 246 c 8
 330 234 331 216 349 203 c 24
 363 192 374 186 391 186 c 27
 406 186 416 190 425 201 c 24
 436 215 429 230 438 245 c 24
 443 252 449 252 457 252 c 27x28
98 128 m 0x88
 162 143 170 146 226 160 c 0
 228 160 229 160 230 160 c 0
 241 160 248 150 248 140 c 0
 248 133 245 127 237 125 c 0x48
 185 112 163 105 113 93 c 0
 112 93 110 93 109 93 c 0
 100 93 93 99 91 108 c 0
 89 116 90 126 98 128 c 0x88
59 148 m 0x28
 48 148 40 157 40 169 c 0
 40 175 42 181 48 182 c 0
 112 198 120 200 176 215 c 0
 178 215 179 215 180 215 c 0
 191 215 198 204 198 195 c 0
 198 188 195 182 187 180 c 0x18
 135 167 113 160 63 148 c 0
 62 148 60 148 59 148 c 0x28
EndSplineSet
Validated: 1
EndChar

StartChar: uniEE97
Encoding: 61079 61079 46
Width: 638
VWidth: 0
Flags: W
HStem: 139 92<333.297 375> 147 38<462.853 541.73> 190 41<278.177 323.627>
VStem: 316 77<147.439 178.585> 554 42<200.657 250.895>
DStem2: 46 220 66 188 0.929151 0.369701<-11.4704 149.427> 105 146 125 114 0.92807 0.372406<-11.4383 149.428>
LayerCount: 2
Fore
SplineSet
573 251 m 27x78
 587 251 596 242 596 226 c 0
 596 203 596 191 579 173 c 8
 560 152 539 147 510 147 c 19
 465 147 438 164 415 189 c 8
 403 203 393 217 393 231 c 0
 393 241 405 248 416 248 c 0
 420 248 424 247 427 245 c 8
 446 233 447 216 465 202 c 24
 480 192 490 185 507 185 c 27
 522 185 532 189 541 200 c 24
 553 214 545 229 554 244 c 24
 559 251 566 251 573 251 c 27x78
342 139 m 0x98
 330 139 319 145 316 161 c 8
 314 170 322 170 331 179 c 0
 337 186 330 192 324 195 c 24
 316 198 311 187 303 190 c 24
 290 195 286 204 275 213 c 17
 275 214 l 0
 275 227 296 231 316 231 c 0x38
 356 231 390 207 393 176 c 1
 393 155 362 139 342 139 c 0x98
105 146 m 0
 167 170 175 174 228 195 c 0
 237 199 246 194 250 186 c 0
 254 177 252 166 243 162 c 0
 194 142 173 132 125 114 c 0
 115 110 105 116 101 125 c 0
 98 133 98 143 105 146 c 0
46 220 m 0
 108 244 115 248 169 269 c 0
 178 273 187 268 191 260 c 0
 195 251 193 240 184 236 c 0
 135 216 113 206 66 188 c 0
 56 184 45 190 42 199 c 0
 39 207 38 217 46 220 c 0
EndSplineSet
Validated: 1
EndChar

StartChar: uniEE9C
Encoding: 61084 61084 47
Width: 836
VWidth: 0
Flags: W
HStem: 80 33<40.6325 87.8517 230.39 261.593> 95 26<486 522.467> 116 50<600.484 658.768>
VStem: 535 53<152 203.312> 555 51<74.7503 109.945>
DStem2: 46 113 66 81 0.934444 0.356111<1.41816 127.136> 117 58 136 26 0.928918 0.370286<-0.056428 137.372> 314 185 328 155 0.918562 0.395278<-15.2803 504.333>
LayerCount: 2
Fore
SplineSet
640 166 m 0x30
 648 166 665 156 665 148 c 0
 665 129 600 116 600 116 c 1x30
 601 108 606 97 606 88 c 0
 606 76 595 74 583 74 c 0
 561 74 566 96 555 110 c 25
 534 104 555 110 503 95 c 0
 495 93 485 101 485 110 c 0
 485 114 486 117 486 121 c 1x48
 505 131 518 131 538 139 c 1
 538 151 535 158 535 167 c 0
 535 184 543 204 563 204 c 0
 567 204 571 203 577 202 c 0
 588 199 582 172 588 152 c 1
 604 156 623 166 640 166 c 0x30
782 374 m 0
 792 374 795 370 795 360 c 0
 795 352 786 348 779 345 c 0
 605 271 483 215 328 155 c 9
 320 157 310 153 307 160 c 24
 303 170 306 181 314 185 c 0
 459 244 559 284 763 369 c 0
 767 372 776 374 782 374 c 0
117 58 m 0
 178 82 186 86 240 107 c 0
 242 108 244 108 245 108 c 0
 256 108 264 97 264 87 c 0
 264 82 261 77 255 74 c 0
 206 54 184 44 136 26 c 0
 134 25 132 25 130 25 c 0
 122 25 115 30 112 37 c 0
 109 45 109 55 117 58 c 0
60 80 m 0x80
 49 80 40 89 40 102 c 0
 40 107 42 111 46 113 c 0
 108 137 106 135 159 157 c 0
 161 158 163 158 165 158 c 0
 175 158 183 147 183 137 c 0
 183 131 181 126 174 124 c 0
 125 104 114 99 66 81 c 0
 64 80 62 80 60 80 c 0x80
EndSplineSet
Validated: 1
EndChar

StartChar: uniEEA2
Encoding: 61090 61090 48
Width: 893
VWidth: 0
Flags: W
AnchorPoint: "Tonal" 540 322 basechar 0
AnchorPoint: "Podchashie" 506 98 basechar 0
LayerCount: 2
Fore
SplineSet
840 374 m 0
 849 374 852 370 853 360 c 0
 853 352 844 348 836 345 c 0
 662 271 540 215 386 155 c 9
 377 157 368 153 364 160 c 24
 360 170 363 181 372 185 c 0
 516 244 616 284 821 369 c 0
 825 372 834 374 840 374 c 0
170 211 m 0
 171 222 186 224 195 222 c 0
 205 221 209 217 214 210 c 0
 220 200 277 132 277 101 c 0
 277 90 272 86 265 86 c 0
 256 86 244 93 239 98 c 8
 209 132 198 155 175 195 c 16
 172 200 169 205 170 211 c 0
154 76 m 0
 154 67 147 62 138 62 c 0
 128 62 120 67 113 75 c 8
 81 110 69 135 46 176 c 16
 43 181 40 186 40 191 c 0
 40 202 54 205 62 205 c 0
 77 204 81 200 88 191 c 16
 95 180 154 108 154 76 c 0
EndSplineSet
Validated: 1
EndChar

StartChar: uniEEA3
Encoding: 61091 61091 49
Width: 893
VWidth: 0
Flags: W
HStem: 120 54<548.97 612.042> 182 54<698.329 744.883>
VStem: 548 65<122.513 172.281> 697 49<182.929 235.098>
LayerCount: 2
Fore
SplineSet
697 206 m 1
 697 221 709 236 725 236 c 0
 737 236 746 220 746 205 c 0
 746 195 738 182 725 182 c 0
 713 182 700 193 697 206 c 1
613 145 m 0
 613 130 600 120 584 120 c 0
 568 120 551 130 548 145 c 1
 548 165 559 174 580 174 c 0
 596 174 613 164 613 145 c 0
840 374 m 0
 849 374 852 370 853 360 c 0
 853 352 844 348 836 345 c 0
 662 271 540 215 386 155 c 9
 377 157 368 153 364 160 c 25
 360 170 363 181 372 185 c 0
 516 244 616 284 821 369 c 1
 825 372 834 374 840 374 c 0
175 195 m 16
 172 200 171 205 171 209 c 0
 171 217 176 223 188 223 c 0
 202 223 208 218 214 210 c 0
 220 200 277 132 277 101 c 0
 277 90 272 86 265 86 c 0
 256 86 244 93 239 98 c 8
 209 132 198 155 175 195 c 16
154 76 m 0
 154 67 147 62 138 62 c 0
 128 62 120 67 113 75 c 8
 81 110 69 135 46 176 c 16
 43 181 40 186 40 191 c 0
 40 202 54 205 62 205 c 0
 77 204 81 200 88 191 c 17
 95 180 154 108 154 76 c 0
EndSplineSet
Validated: 1
EndChar

StartChar: uniEEA4
Encoding: 61092 61092 50
Width: 893
VWidth: 0
Flags: W
HStem: 110 26<577 613.529>
VStem: 627 52<167 219.467>
LayerCount: 2
Fore
SplineSet
731 181 m 0
 740 181 757 171 757 163 c 0
 757 144 691 131 691 131 c 1
 693 123 698 112 698 103 c 0
 698 91 687 89 674 89 c 0
 653 89 657 111 646 125 c 25
 626 119 646 125 594 110 c 0
 587 108 576 116 576 125 c 0
 576 129 577 132 577 136 c 1
 597 146 610 146 629 154 c 1
 630 166 627 173 627 182 c 0
 627 199 634 220 654 220 c 0
 659 220 663 219 668 217 c 0
 680 214 674 187 679 167 c 1
 696 172 715 181 731 181 c 0
840 374 m 0
 849 374 853 370 853 360 c 0
 853 352 844 348 836 345 c 0
 662 271 540 215 386 155 c 9
 377 157 368 153 364 160 c 24
 360 170 363 181 372 185 c 0
 516 244 616 284 821 369 c 0
 825 372 834 374 840 374 c 0
170 211 m 0
 171 222 186 224 195 222 c 0
 205 221 209 217 214 210 c 0
 221 200 278 132 278 101 c 0
 278 90 272 86 265 86 c 0
 256 86 244 93 239 98 c 8
 210 132 198 155 176 195 c 16
 172 200 169 205 170 211 c 0
154 76 m 0
 154 67 147 62 138 62 c 0
 128 62 120 67 113 75 c 8
 82 110 69 135 46 176 c 16
 43 181 40 186 40 191 c 0
 40 202 54 205 62 205 c 0
 77 204 81 200 88 191 c 16
 95 180 154 108 154 76 c 0
EndSplineSet
Validated: 1
EndChar

StartChar: uniEEA5
Encoding: 61093 61093 51
Width: 764
VWidth: 0
Flags: W
DStem2: 242 185 256 155 0.918562 0.395278<-16.3019 504.333>
LayerCount: 2
Fore
SplineSet
710 374 m 0
 720 374 723 370 723 360 c 0
 723 352 714 348 707 345 c 0
 533 271 411 215 256 155 c 9
 248 157 238 153 234 160 c 24
 230 170 233 181 242 185 c 0
 387 244 487 284 691 369 c 0
 695 372 704 374 710 374 c 0
40 211 m 0
 42 222 56 224 66 222 c 0
 75 221 79 217 85 210 c 0
 91 200 148 132 148 101 c 0
 148 90 142 86 136 86 c 0
 126 86 114 93 110 98 c 8
 80 132 68 155 46 195 c 16
 43 200 39 205 40 211 c 0
EndSplineSet
Validated: 1
EndChar

StartChar: uniEEB1
Encoding: 61105 61105 52
Width: 894
VWidth: 0
Flags: W
HStem: 118 55<505.701 565.382> 149 53<662.934 709.438> 172 35<117.797 185.637> 301 34<770.295 853.848>
VStem: 503 64<121.652 170.478> 662 48<149.267 201.101>
DStem2: 111 103 128 70 0.947001 0.32123<0.487296 132.171 265.729 754.061>
AnchorPoint: "Podchashie" 422 74 basechar 0
AnchorPoint: "Tonal" 515.252 305.618 basechar 0
LayerCount: 2
Fore
SplineSet
662 178 m 0x5c
 662 192 678 202 690 202 c 0x5c
 706 202 710 186 710 172 c 0x3c
 710 159 699 149 687 149 c 0
 673 149 662 164 662 178 c 0x5c
503 151 m 0
 503 166 517 173 531 173 c 0
 549 173 567 161 567 142 c 0
 567 127 555 118 541 118 c 0x9c
 522 118 503 133 503 151 c 0
281 229 m 1
 292 232 304 234 314 234 c 0
 329 234 343 230 351 217 c 0
 356 208 357 204 361 196 c 25
 792 334 l 18
 795 334 820 335 829 335 c 0
 843 335 855 333 854 319 c 1
 855 303 846 301 834 301 c 0
 829 301 826 301 823 301 c 0
 817 301 813 301 800 298 c 0
 686 262 584 232 380 161 c 8
 371 158 366 155 356 155 c 27
 315 155 289 221 281 229 c 1
111 103 m 0
 174 122 182 125 237 143 c 0
 239 143 241 143 242 143 c 0
 253 143 260 132 260 123 c 0
 260 116 257 111 250 108 c 0
 199 93 177 85 128 70 c 0
 126 69 124 69 123 69 c 0
 114 69 107 75 105 83 c 0
 103 91 103 101 111 103 c 0
64 138 m 0
 62 138 60 137 59 137 c 0
 48 137 40 148 40 159 c 0
 40 165 42 170 47 172 c 0
 111 191 108 189 163 207 c 0
 165 207 166 207 168 207 c 0
 178 207 186 196 186 186 c 0
 186 180 183 175 176 172 c 0x3c
 125 157 113 153 64 138 c 0
EndSplineSet
Validated: 1
EndChar

StartChar: uni0001
Encoding: 1 1 54
Width: 500
Flags: W
HStem: 0 19<66 435> 748 22<66 435>
VStem: 37 22<34 733> 442 22<34 733>
DStem2: 66 748 59 733 0.465951 -0.884811<10.0105 395.419 421.078 806.952> 59 34 66 19 0.465951 0.884811<0 385.408 411.068 796.942>
LayerCount: 2
Fore
SplineSet
37 770 m 1
 464 770 l 1
 464 0 l 1
 37 0 l 1
 37 770 l 1
66 748 m 1
 250 398 l 1
 435 748 l 1
 66 748 l 1
258 383 m 1
 442 34 l 1
 442 733 l 1
 258 383 l 1
435 19 m 1
 250 369 l 1
 66 19 l 1
 435 19 l 1
59 733 m 1
 59 34 l 1
 243 383 l 1
 59 733 l 1
EndSplineSet
Validated: 1
EndChar

StartChar: uni0002
Encoding: 2 2 55
Width: 500
Flags: W
HStem: 0 19<66 435> 748 22<66 435>
VStem: 37 22<34 733> 442 22<34 733>
DStem2: 66 748 59 733 0.465951 -0.884811<10.0105 395.419 421.078 806.952> 59 34 66 19 0.465951 0.884811<0 385.408 411.068 796.942>
LayerCount: 2
Fore
SplineSet
37 770 m 1
 464 770 l 1
 464 0 l 1
 37 0 l 1
 37 770 l 1
66 748 m 1
 250 398 l 1
 435 748 l 1
 66 748 l 1
258 383 m 1
 442 34 l 1
 442 733 l 1
 258 383 l 1
435 19 m 1
 250 369 l 1
 66 19 l 1
 435 19 l 1
59 733 m 1
 59 34 l 1
 243 383 l 1
 59 733 l 1
EndSplineSet
Validated: 1
EndChar

StartChar: uni0003
Encoding: 3 3 56
Width: 500
Flags: W
HStem: 0 19<66 435> 748 22<66 435>
VStem: 37 22<34 733> 442 22<34 733>
DStem2: 66 748 59 733 0.465951 -0.884811<10.0105 395.419 421.078 806.952> 59 34 66 19 0.465951 0.884811<0 385.408 411.068 796.942>
LayerCount: 2
Fore
SplineSet
37 770 m 1
 464 770 l 1
 464 0 l 1
 37 0 l 1
 37 770 l 1
66 748 m 1
 250 398 l 1
 435 748 l 1
 66 748 l 1
258 383 m 1
 442 34 l 1
 442 733 l 1
 258 383 l 1
435 19 m 1
 250 369 l 1
 66 19 l 1
 435 19 l 1
59 733 m 1
 59 34 l 1
 243 383 l 1
 59 733 l 1
EndSplineSet
Validated: 1
EndChar

StartChar: uni0004
Encoding: 4 4 57
Width: 500
Flags: W
HStem: 0 19<66 435> 748 22<66 435>
VStem: 37 22<34 733> 442 22<34 733>
DStem2: 66 748 59 733 0.465951 -0.884811<10.0105 395.419 421.078 806.952> 59 34 66 19 0.465951 0.884811<0 385.408 411.068 796.942>
LayerCount: 2
Fore
SplineSet
37 770 m 1
 464 770 l 1
 464 0 l 1
 37 0 l 1
 37 770 l 1
66 748 m 1
 250 398 l 1
 435 748 l 1
 66 748 l 1
258 383 m 1
 442 34 l 1
 442 733 l 1
 258 383 l 1
435 19 m 1
 250 369 l 1
 66 19 l 1
 435 19 l 1
59 733 m 1
 59 34 l 1
 243 383 l 1
 59 733 l 1
EndSplineSet
Validated: 1
EndChar

StartChar: uni0005
Encoding: 5 5 58
Width: 500
Flags: W
HStem: 0 19<66 435> 748 22<66 435>
VStem: 37 22<34 733> 442 22<34 733>
DStem2: 66 748 59 733 0.465951 -0.884811<10.0105 395.419 421.078 806.952> 59 34 66 19 0.465951 0.884811<0 385.408 411.068 796.942>
LayerCount: 2
Fore
SplineSet
37 770 m 1
 464 770 l 1
 464 0 l 1
 37 0 l 1
 37 770 l 1
66 748 m 1
 250 398 l 1
 435 748 l 1
 66 748 l 1
258 383 m 1
 442 34 l 1
 442 733 l 1
 258 383 l 1
435 19 m 1
 250 369 l 1
 66 19 l 1
 435 19 l 1
59 733 m 1
 59 34 l 1
 243 383 l 1
 59 733 l 1
EndSplineSet
Validated: 1
EndChar

StartChar: uni0006
Encoding: 6 6 59
Width: 500
Flags: W
HStem: 0 19<66 435> 748 22<66 435>
VStem: 37 22<34 733> 442 22<34 733>
DStem2: 66 748 59 733 0.465951 -0.884811<10.0105 395.419 421.078 806.952> 59 34 66 19 0.465951 0.884811<0 385.408 411.068 796.942>
LayerCount: 2
Fore
SplineSet
37 770 m 1
 464 770 l 1
 464 0 l 1
 37 0 l 1
 37 770 l 1
66 748 m 1
 250 398 l 1
 435 748 l 1
 66 748 l 1
258 383 m 1
 442 34 l 1
 442 733 l 1
 258 383 l 1
435 19 m 1
 250 369 l 1
 66 19 l 1
 435 19 l 1
59 733 m 1
 59 34 l 1
 243 383 l 1
 59 733 l 1
EndSplineSet
Validated: 1
EndChar

StartChar: uni0007
Encoding: 7 7 60
Width: 500
Flags: W
HStem: 0 19<66 435> 748 22<66 435>
VStem: 37 22<34 733> 442 22<34 733>
DStem2: 66 748 59 733 0.465951 -0.884811<10.0105 395.419 421.078 806.952> 59 34 66 19 0.465951 0.884811<0 385.408 411.068 796.942>
LayerCount: 2
Fore
SplineSet
37 770 m 1
 464 770 l 1
 464 0 l 1
 37 0 l 1
 37 770 l 1
66 748 m 1
 250 398 l 1
 435 748 l 1
 66 748 l 1
258 383 m 1
 442 34 l 1
 442 733 l 1
 258 383 l 1
435 19 m 1
 250 369 l 1
 66 19 l 1
 435 19 l 1
59 733 m 1
 59 34 l 1
 243 383 l 1
 59 733 l 1
EndSplineSet
Validated: 1
EndChar

StartChar: uni000B
Encoding: 11 11 64
Width: 500
Flags: W
HStem: 0 19<66 435> 748 22<66 435>
VStem: 37 22<34 733> 442 22<34 733>
DStem2: 66 748 59 733 0.465951 -0.884811<10.0105 395.419 421.078 806.952> 59 34 66 19 0.465951 0.884811<0 385.408 411.068 796.942>
LayerCount: 2
Fore
SplineSet
37 770 m 1
 464 770 l 1
 464 0 l 1
 37 0 l 1
 37 770 l 1
66 748 m 1
 250 398 l 1
 435 748 l 1
 66 748 l 1
258 383 m 1
 442 34 l 1
 442 733 l 1
 258 383 l 1
435 19 m 1
 250 369 l 1
 66 19 l 1
 435 19 l 1
59 733 m 1
 59 34 l 1
 243 383 l 1
 59 733 l 1
EndSplineSet
Validated: 1
EndChar

StartChar: uni000C
Encoding: 12 12 65
Width: 500
Flags: W
HStem: 0 19<66 435> 748 22<66 435>
VStem: 37 22<34 733> 442 22<34 733>
DStem2: 66 748 59 733 0.465951 -0.884811<10.0105 395.419 421.078 806.952> 59 34 66 19 0.465951 0.884811<0 385.408 411.068 796.942>
LayerCount: 2
Fore
SplineSet
37 770 m 1
 464 770 l 1
 464 0 l 1
 37 0 l 1
 37 770 l 1
66 748 m 1
 250 398 l 1
 435 748 l 1
 66 748 l 1
258 383 m 1
 442 34 l 1
 442 733 l 1
 258 383 l 1
435 19 m 1
 250 369 l 1
 66 19 l 1
 435 19 l 1
59 733 m 1
 59 34 l 1
 243 383 l 1
 59 733 l 1
EndSplineSet
Validated: 1
EndChar

StartChar: uni000E
Encoding: 14 14 67
Width: 500
Flags: W
HStem: 0 19<66 435> 748 22<66 435>
VStem: 37 22<34 733> 442 22<34 733>
DStem2: 66 748 59 733 0.465951 -0.884811<10.0105 395.419 421.078 806.952> 59 34 66 19 0.465951 0.884811<0 385.408 411.068 796.942>
LayerCount: 2
Fore
SplineSet
37 770 m 1
 464 770 l 1
 464 0 l 1
 37 0 l 1
 37 770 l 1
66 748 m 1
 250 398 l 1
 435 748 l 1
 66 748 l 1
258 383 m 1
 442 34 l 1
 442 733 l 1
 258 383 l 1
435 19 m 1
 250 369 l 1
 66 19 l 1
 435 19 l 1
59 733 m 1
 59 34 l 1
 243 383 l 1
 59 733 l 1
EndSplineSet
Validated: 1
EndChar

StartChar: uni000F
Encoding: 15 15 68
Width: 500
Flags: W
HStem: 0 19<66 435> 748 22<66 435>
VStem: 37 22<34 733> 442 22<34 733>
DStem2: 66 748 59 733 0.465951 -0.884811<10.0105 395.419 421.078 806.952> 59 34 66 19 0.465951 0.884811<0 385.408 411.068 796.942>
LayerCount: 2
Fore
SplineSet
37 770 m 1
 464 770 l 1
 464 0 l 1
 37 0 l 1
 37 770 l 1
66 748 m 1
 250 398 l 1
 435 748 l 1
 66 748 l 1
258 383 m 1
 442 34 l 1
 442 733 l 1
 258 383 l 1
435 19 m 1
 250 369 l 1
 66 19 l 1
 435 19 l 1
59 733 m 1
 59 34 l 1
 243 383 l 1
 59 733 l 1
EndSplineSet
Validated: 1
EndChar

StartChar: uni0010
Encoding: 16 16 69
Width: 500
Flags: W
HStem: 0 19<66 435> 748 22<66 435>
VStem: 37 22<34 733> 442 22<34 733>
DStem2: 66 748 59 733 0.465951 -0.884811<10.0105 395.419 421.078 806.952> 59 34 66 19 0.465951 0.884811<0 385.408 411.068 796.942>
LayerCount: 2
Fore
SplineSet
37 770 m 1
 464 770 l 1
 464 0 l 1
 37 0 l 1
 37 770 l 1
66 748 m 1
 250 398 l 1
 435 748 l 1
 66 748 l 1
258 383 m 1
 442 34 l 1
 442 733 l 1
 258 383 l 1
435 19 m 1
 250 369 l 1
 66 19 l 1
 435 19 l 1
59 733 m 1
 59 34 l 1
 243 383 l 1
 59 733 l 1
EndSplineSet
Validated: 1
EndChar

StartChar: uni0011
Encoding: 17 17 70
Width: 500
Flags: W
HStem: 0 19<66 435> 748 22<66 435>
VStem: 37 22<34 733> 442 22<34 733>
DStem2: 66 748 59 733 0.465951 -0.884811<10.0105 395.419 421.078 806.952> 59 34 66 19 0.465951 0.884811<0 385.408 411.068 796.942>
LayerCount: 2
Fore
SplineSet
37 770 m 1
 464 770 l 1
 464 0 l 1
 37 0 l 1
 37 770 l 1
66 748 m 1
 250 398 l 1
 435 748 l 1
 66 748 l 1
258 383 m 1
 442 34 l 1
 442 733 l 1
 258 383 l 1
435 19 m 1
 250 369 l 1
 66 19 l 1
 435 19 l 1
59 733 m 1
 59 34 l 1
 243 383 l 1
 59 733 l 1
EndSplineSet
Validated: 1
EndChar

StartChar: uni0012
Encoding: 18 18 71
Width: 500
Flags: W
HStem: 0 19<66 435> 748 22<66 435>
VStem: 37 22<34 733> 442 22<34 733>
DStem2: 66 748 59 733 0.465951 -0.884811<10.0105 395.419 421.078 806.952> 59 34 66 19 0.465951 0.884811<0 385.408 411.068 796.942>
LayerCount: 2
Fore
SplineSet
37 770 m 1
 464 770 l 1
 464 0 l 1
 37 0 l 1
 37 770 l 1
66 748 m 1
 250 398 l 1
 435 748 l 1
 66 748 l 1
258 383 m 1
 442 34 l 1
 442 733 l 1
 258 383 l 1
435 19 m 1
 250 369 l 1
 66 19 l 1
 435 19 l 1
59 733 m 1
 59 34 l 1
 243 383 l 1
 59 733 l 1
EndSplineSet
Validated: 1
EndChar

StartChar: uni0013
Encoding: 19 19 72
Width: 500
Flags: W
HStem: 0 19<66 435> 748 22<66 435>
VStem: 37 22<34 733> 442 22<34 733>
DStem2: 66 748 59 733 0.465951 -0.884811<10.0105 395.419 421.078 806.952> 59 34 66 19 0.465951 0.884811<0 385.408 411.068 796.942>
LayerCount: 2
Fore
SplineSet
37 770 m 1
 464 770 l 1
 464 0 l 1
 37 0 l 1
 37 770 l 1
66 748 m 1
 250 398 l 1
 435 748 l 1
 66 748 l 1
258 383 m 1
 442 34 l 1
 442 733 l 1
 258 383 l 1
435 19 m 1
 250 369 l 1
 66 19 l 1
 435 19 l 1
59 733 m 1
 59 34 l 1
 243 383 l 1
 59 733 l 1
EndSplineSet
Validated: 1
EndChar

StartChar: uni0014
Encoding: 20 20 73
Width: 500
Flags: W
HStem: 0 19<66 435> 748 22<66 435>
VStem: 37 22<34 733> 442 22<34 733>
DStem2: 66 748 59 733 0.465951 -0.884811<10.0105 395.419 421.078 806.952> 59 34 66 19 0.465951 0.884811<0 385.408 411.068 796.942>
LayerCount: 2
Fore
SplineSet
37 770 m 1
 464 770 l 1
 464 0 l 1
 37 0 l 1
 37 770 l 1
66 748 m 1
 250 398 l 1
 435 748 l 1
 66 748 l 1
258 383 m 1
 442 34 l 1
 442 733 l 1
 258 383 l 1
435 19 m 1
 250 369 l 1
 66 19 l 1
 435 19 l 1
59 733 m 1
 59 34 l 1
 243 383 l 1
 59 733 l 1
EndSplineSet
Validated: 1
EndChar

StartChar: uni0015
Encoding: 21 21 74
Width: 500
Flags: W
HStem: 0 19<66 435> 748 22<66 435>
VStem: 37 22<34 733> 442 22<34 733>
DStem2: 66 748 59 733 0.465951 -0.884811<10.0105 395.419 421.078 806.952> 59 34 66 19 0.465951 0.884811<0 385.408 411.068 796.942>
LayerCount: 2
Fore
SplineSet
37 770 m 1
 464 770 l 1
 464 0 l 1
 37 0 l 1
 37 770 l 1
66 748 m 1
 250 398 l 1
 435 748 l 1
 66 748 l 1
258 383 m 1
 442 34 l 1
 442 733 l 1
 258 383 l 1
435 19 m 1
 250 369 l 1
 66 19 l 1
 435 19 l 1
59 733 m 1
 59 34 l 1
 243 383 l 1
 59 733 l 1
EndSplineSet
Validated: 1
EndChar

StartChar: uni0016
Encoding: 22 22 75
Width: 500
Flags: W
HStem: 0 19<66 435> 748 22<66 435>
VStem: 37 22<34 733> 442 22<34 733>
DStem2: 66 748 59 733 0.465951 -0.884811<10.0105 395.419 421.078 806.952> 59 34 66 19 0.465951 0.884811<0 385.408 411.068 796.942>
LayerCount: 2
Fore
SplineSet
37 770 m 1
 464 770 l 1
 464 0 l 1
 37 0 l 1
 37 770 l 1
66 748 m 1
 250 398 l 1
 435 748 l 1
 66 748 l 1
258 383 m 1
 442 34 l 1
 442 733 l 1
 258 383 l 1
435 19 m 1
 250 369 l 1
 66 19 l 1
 435 19 l 1
59 733 m 1
 59 34 l 1
 243 383 l 1
 59 733 l 1
EndSplineSet
Validated: 1
EndChar

StartChar: uni0017
Encoding: 23 23 76
Width: 500
Flags: W
HStem: 0 19<66 435> 748 22<66 435>
VStem: 37 22<34 733> 442 22<34 733>
DStem2: 66 748 59 733 0.465951 -0.884811<10.0105 395.419 421.078 806.952> 59 34 66 19 0.465951 0.884811<0 385.408 411.068 796.942>
LayerCount: 2
Fore
SplineSet
37 770 m 1
 464 770 l 1
 464 0 l 1
 37 0 l 1
 37 770 l 1
66 748 m 1
 250 398 l 1
 435 748 l 1
 66 748 l 1
258 383 m 1
 442 34 l 1
 442 733 l 1
 258 383 l 1
435 19 m 1
 250 369 l 1
 66 19 l 1
 435 19 l 1
59 733 m 1
 59 34 l 1
 243 383 l 1
 59 733 l 1
EndSplineSet
Validated: 1
EndChar

StartChar: uni0018
Encoding: 24 24 77
Width: 500
Flags: W
HStem: 0 19<66 435> 748 22<66 435>
VStem: 37 22<34 733> 442 22<34 733>
DStem2: 66 748 59 733 0.465951 -0.884811<10.0105 395.419 421.078 806.952> 59 34 66 19 0.465951 0.884811<0 385.408 411.068 796.942>
LayerCount: 2
Fore
SplineSet
37 770 m 1
 464 770 l 1
 464 0 l 1
 37 0 l 1
 37 770 l 1
66 748 m 1
 250 398 l 1
 435 748 l 1
 66 748 l 1
258 383 m 1
 442 34 l 1
 442 733 l 1
 258 383 l 1
435 19 m 1
 250 369 l 1
 66 19 l 1
 435 19 l 1
59 733 m 1
 59 34 l 1
 243 383 l 1
 59 733 l 1
EndSplineSet
Validated: 1
EndChar

StartChar: uni0019
Encoding: 25 25 78
Width: 500
Flags: W
HStem: 0 19<66 435> 748 22<66 435>
VStem: 37 22<34 733> 442 22<34 733>
DStem2: 66 748 59 733 0.465951 -0.884811<10.0105 395.419 421.078 806.952> 59 34 66 19 0.465951 0.884811<0 385.408 411.068 796.942>
LayerCount: 2
Fore
SplineSet
37 770 m 1
 464 770 l 1
 464 0 l 1
 37 0 l 1
 37 770 l 1
66 748 m 1
 250 398 l 1
 435 748 l 1
 66 748 l 1
258 383 m 1
 442 34 l 1
 442 733 l 1
 258 383 l 1
435 19 m 1
 250 369 l 1
 66 19 l 1
 435 19 l 1
59 733 m 1
 59 34 l 1
 243 383 l 1
 59 733 l 1
EndSplineSet
Validated: 1
EndChar

StartChar: uni001A
Encoding: 26 26 79
Width: 500
Flags: W
HStem: 0 19<66 435> 748 22<66 435>
VStem: 37 22<34 733> 442 22<34 733>
DStem2: 66 748 59 733 0.465951 -0.884811<10.0105 395.419 421.078 806.952> 59 34 66 19 0.465951 0.884811<0 385.408 411.068 796.942>
LayerCount: 2
Fore
SplineSet
37 770 m 1
 464 770 l 1
 464 0 l 1
 37 0 l 1
 37 770 l 1
66 748 m 1
 250 398 l 1
 435 748 l 1
 66 748 l 1
258 383 m 1
 442 34 l 1
 442 733 l 1
 258 383 l 1
435 19 m 1
 250 369 l 1
 66 19 l 1
 435 19 l 1
59 733 m 1
 59 34 l 1
 243 383 l 1
 59 733 l 1
EndSplineSet
Validated: 1
EndChar

StartChar: uni001B
Encoding: 27 27 80
Width: 500
Flags: W
HStem: 0 19<66 435> 748 22<66 435>
VStem: 37 22<34 733> 442 22<34 733>
DStem2: 66 748 59 733 0.465951 -0.884811<10.0105 395.419 421.078 806.952> 59 34 66 19 0.465951 0.884811<0 385.408 411.068 796.942>
LayerCount: 2
Fore
SplineSet
37 770 m 1
 464 770 l 1
 464 0 l 1
 37 0 l 1
 37 770 l 1
66 748 m 1
 250 398 l 1
 435 748 l 1
 66 748 l 1
258 383 m 1
 442 34 l 1
 442 733 l 1
 258 383 l 1
435 19 m 1
 250 369 l 1
 66 19 l 1
 435 19 l 1
59 733 m 1
 59 34 l 1
 243 383 l 1
 59 733 l 1
EndSplineSet
Validated: 1
EndChar

StartChar: uni001C
Encoding: 28 28 81
Width: 500
Flags: W
HStem: 0 19<66 435> 748 22<66 435>
VStem: 37 22<34 733> 442 22<34 733>
DStem2: 66 748 59 733 0.465951 -0.884811<10.0105 395.419 421.078 806.952> 59 34 66 19 0.465951 0.884811<0 385.408 411.068 796.942>
LayerCount: 2
Fore
SplineSet
37 770 m 1
 464 770 l 1
 464 0 l 1
 37 0 l 1
 37 770 l 1
66 748 m 1
 250 398 l 1
 435 748 l 1
 66 748 l 1
258 383 m 1
 442 34 l 1
 442 733 l 1
 258 383 l 1
435 19 m 1
 250 369 l 1
 66 19 l 1
 435 19 l 1
59 733 m 1
 59 34 l 1
 243 383 l 1
 59 733 l 1
EndSplineSet
Validated: 1
EndChar

StartChar: uni001E
Encoding: 30 30 83
Width: 500
Flags: W
HStem: 0 19<66 435> 748 22<66 435>
VStem: 37 22<34 733> 442 22<34 733>
DStem2: 66 748 59 733 0.465951 -0.884811<10.0105 395.419 421.078 806.952> 59 34 66 19 0.465951 0.884811<0 385.408 411.068 796.942>
LayerCount: 2
Fore
SplineSet
37 770 m 1
 464 770 l 1
 464 0 l 1
 37 0 l 1
 37 770 l 1
66 748 m 1
 250 398 l 1
 435 748 l 1
 66 748 l 1
258 383 m 1
 442 34 l 1
 442 733 l 1
 258 383 l 1
435 19 m 1
 250 369 l 1
 66 19 l 1
 435 19 l 1
59 733 m 1
 59 34 l 1
 243 383 l 1
 59 733 l 1
EndSplineSet
Validated: 1
EndChar

StartChar: uni001F
Encoding: 31 31 84
Width: 500
Flags: W
HStem: 0 19<66 435> 748 22<66 435>
VStem: 37 22<34 733> 442 22<34 733>
DStem2: 66 748 59 733 0.465951 -0.884811<10.0105 395.419 421.078 806.952> 59 34 66 19 0.465951 0.884811<0 385.408 411.068 796.942>
LayerCount: 2
Fore
SplineSet
37 770 m 1
 464 770 l 1
 464 0 l 1
 37 0 l 1
 37 770 l 1
66 748 m 1
 250 398 l 1
 435 748 l 1
 66 748 l 1
258 383 m 1
 442 34 l 1
 442 733 l 1
 258 383 l 1
435 19 m 1
 250 369 l 1
 66 19 l 1
 435 19 l 1
59 733 m 1
 59 34 l 1
 243 383 l 1
 59 733 l 1
EndSplineSet
Validated: 1
EndChar

StartChar: parenleft
Encoding: 40 40 87
Width: 184
Flags: W
HStem: -1 21G<129.891 153.411>
VStem: 30.5312 41.2803<110.135 301.732>
LayerCount: 2
Fore
SplineSet
147.651 -1 m 1
 112.131 20.5996 30.5312 89.2402 30.5312 204.92 c 0
 30.5312 326.84 109.731 383 149.091 408.44 c 1
 153.411 400.76 l 1
 103.971 360.92 71.8115 323.96 71.8115 206.36 c 0
 71.8115 83.96 103.971 45.5596 153.411 6.67969 c 1
 147.651 -1 l 1
EndSplineSet
Validated: 1
EndChar

StartChar: parenright
Encoding: 41 41 88
Width: 184
Flags: W
HStem: -1 21G<31 54>
VStem: 112 41<110.143 301.746>
LayerCount: 2
Fore
SplineSet
36 -1 m 1
 31 7 l 1
 80 46 112 84 112 206 c 0
 112 324 80 361 31 401 c 1
 35 408 l 1
 74 383 153 327 153 205 c 0
 153 89 72 21 36 -1 c 1
EndSplineSet
Validated: 1
EndChar

StartChar: uniEA60
Encoding: 60000 60000 89
Width: 270
VWidth: 0
Flags: W
HStem: 102 55<104.209 175.126> 214 50<166.539 228.334>
VStem: 40 63<140.102 195.245> 164 66<217.975 260.295>
LayerCount: 2
Fore
SplineSet
191 264 m 0
 210 264 230 250 230 235 c 0
 230 220 216 214 203 214 c 0
 183 214 164 231 164 245 c 0
 164 254 173 264 191 264 c 0
103 140 m 9
 129 147 142 157 170 157 c 0
 181 157 190 154 190 138 c 0
 190 124 131 102 92 102 c 0
 76 102 63 106 60 115 c 0
 52 136 43 161 40 186 c 1
 56 196 71 198 79 198 c 0
 97 198 94 175 103 140 c 9
EndSplineSet
Validated: 1
Ligature2: "'ccmp' Znamenny Ligatures 0-1" uniEE75 uniEE5A
Ligature2: "'ccmp' Znamenny Ligatures 0-1" uniEE75 uniEE50
EndChar

StartChar: uniEA62
Encoding: 60002 60002 90
Width: 302
VWidth: 0
Flags: W
HStem: 240 48<186.852 252.152>
VStem: 186 67<242.937 284.654>
LayerCount: 2
Fore
SplineSet
186 267 m 0
 186 276 195 288 214 288 c 0
 231 288 253 277 253 261 c 0
 253 248 238 240 223 240 c 0
 205 240 186 252 186 267 c 0
40 297 m 0
 40 310 54 319 69 319 c 0
 73 319 77 318 81 314 c 0
 147 230 183 184 259 110 c 0
 261 107 262 104 262 101 c 0
 262 92 254 82 244 80 c 1
 218 81 217 87 205 99 c 1
 143 153 111 200 53 272 c 0
 46 280 40 286 40 297 c 0
EndSplineSet
Validated: 1
LCarets2: 1 0 
Ligature2: "'ccmp' Znamenny Ligatures 0-1" uniEE78 uniEE5A
EndChar

StartChar: uniEA6C
Encoding: 60012 60012 91
Width: 379
VWidth: 0
Flags: W
HStem: 150 46<278.549 337.805> 227 43<240.721 295.232>
VStem: 240 56<229.101 268.025> 278 60<150.964 194.303>
DStem2: 46 186 66 154 0.92807 0.372406<-11.4383 149.428> 106 112 125 80 0.927846 0.372962<-12.4161 148.513>
LayerCount: 2
Fore
SplineSet
338 172 m 0xd0
 338 156 321 150 307 150 c 0
 290 150 278 164 278 176 c 0
 278 187 288 196 306 196 c 0
 321 196 338 185 338 172 c 0xd0
263 270 m 0
 279 270 296 257 296 244 c 0
 296 232 285 227 273 227 c 0
 256 227 240 241 240 253 c 0xe0
 240 261 248 270 263 270 c 0
106 112 m 0
 167 136 175 140 228 161 c 0
 237 165 247 160 250 152 c 0
 254 143 253 132 244 128 c 0
 194 108 173 98 125 80 c 0
 116 76 105 82 101 91 c 0
 98 99 98 109 106 112 c 0
46 186 m 0
 108 210 116 214 169 235 c 0
 178 239 187 234 191 226 c 0
 195 217 193 206 184 202 c 0
 135 182 114 172 66 154 c 0
 56 150 46 156 42 165 c 0
 39 173 39 183 46 186 c 0
EndSplineSet
Validated: 1
LCarets2: 1 0 
Ligature2: "'ccmp' Znamenny Ligatures 0-1" uniEE8F uniEE51
EndChar

StartChar: uniEA6B
Encoding: 60011 60011 92
Width: 337
VWidth: 0
Flags: W
HStem: 227 43<240.721 295.232>
VStem: 240 56<229.101 268.025>
DStem2: 46 186 66 154 0.92807 0.372406<-11.4383 149.428> 106 112 125 80 0.927846 0.372962<-12.4161 148.513>
LayerCount: 2
Fore
SplineSet
263 270 m 0
 279 270 296 257 296 244 c 0
 296 232 285 227 273 227 c 0
 256 227 240 241 240 253 c 0
 240 261 248 270 263 270 c 0
106 112 m 0
 167 136 175 140 228 161 c 0
 237 165 247 160 250 152 c 0
 254 143 253 132 244 128 c 0
 194 108 173 98 125 80 c 0
 116 76 105 82 101 91 c 0
 98 99 98 109 106 112 c 0
46 186 m 0
 108 210 116 214 169 235 c 0
 178 239 187 234 191 226 c 0
 195 217 193 206 184 202 c 0
 135 182 114 172 66 154 c 0
 56 150 46 156 42 165 c 0
 39 173 39 183 46 186 c 0
EndSplineSet
Validated: 1
LCarets2: 1 0 
Ligature2: "'ccmp' Znamenny Ligatures 0-1" uniEE8F uniEE50
EndChar

StartChar: uniEA70
Encoding: 60016 60016 93
Width: 528
VWidth: 0
Flags: W
HStem: 97 34<92.0974 159.703> 132 35<177.766 247.816> 177 34<40.4608 107.508> 212 35<125.487 196.819> 226 43<431.721 486.232>
VStem: 431 56<228.101 267.025>
DStem2: 342 288 314 246 0.645198 -0.764016<-11.4404 233.184>
LayerCount: 2
Fore
SplineSet
454 269 m 0xec
 470 269 487 256 487 243 c 0
 487 231 476 226 464 226 c 0
 447 226 431 240 431 252 c 0
 431 260 439 269 454 269 c 0xec
301 271 m 0
 301 284 316 293 330 293 c 0
 334 293 339 292 342 288 c 0
 381 241 424 193 474 129 c 1
 481 120 484 114 485 103 c 0
 485 94 476 87 467 87 c 0
 449 87 442 98 430 110 c 1
 352 205 341 216 314 246 c 0
 307 254 301 260 301 271 c 0
98 131 m 0
 162 148 170 151 226 167 c 0
 227 167 229 167 230 167 c 0
 241 167 248 156 248 147 c 0
 248 140 245 134 237 132 c 0
 186 118 164 110 114 97 c 0
 113 97 111 97 110 97 c 0
 101 97 94 103 92 111 c 0
 90 119 90 129 98 131 c 0
59 177 m 0
 48 177 40 186 40 199 c 0
 40 205 42 210 48 211 c 0
 112 229 119 231 175 247 c 0
 177 247 178 247 180 247 c 0
 190 247 197 237 197 227 c 0
 197 220 194 214 187 212 c 0xf4
 136 198 113 191 64 178 c 0
 62 177 61 177 59 177 c 0
EndSplineSet
Validated: 1
LCarets2: 1 0 
Ligature2: "'ccmp' Znamenny Ligatures 0-1" uniEE93 uniEE50
EndChar

StartChar: uniEE5A
Encoding: 61018 61018 94
Width: 0
VWidth: 0
GlyphClass: 4
Flags: W
HStem: 227 43<-95.2485 -40.7675>
VStem: -96 56<229.101 268.025>
LayerCount: 2
Fore
SplineSet
-73 270 m 0
 -57 270 -40 257 -40 244 c 0
 -40 232 -51 227 -63 227 c 0
 -80 227 -96 241 -96 253 c 0
 -96 261 -89 270 -73 270 c 0
EndSplineSet
Validated: 1
EndChar

StartChar: uni25CC
Encoding: 9676 9676 95
Width: 525
Flags: W
HStem: -11 69<228.499 293.116> 42 69<94.4993 160.204 360.499 425.204> 174 69<34.1933 99.4636 422.499 487.204> 319 69<94.7991 159.92 363.219 422.698> 376 69<228.508 293.246>
VStem: 33 67<174.596 241.864> 93 68<42.7508 109.864 319.837 385.91> 227 67<-9.86539 56.8636 376.837 443.492> 359 67<42.7508 109.97 324.788 392.864> 421 67<174.796 241.864>
AnchorPoint: "Podchashie" 263 -58 basechar 0
AnchorPoint: "Tonal" 72.5 454.6 basechar 0
LayerCount: 2
Fore
SplineSet
67 243 m 0x25
 81 243 84 243 93 233 c 0x23
 102 223 100 223 100 208 c 0
 100 193 100 193 91 183.5 c 0
 82 174 82 174 67 174 c 0
 52 174 52 174 42.5 184 c 0
 33 194 33 194 33 208 c 0
 33 222 33 222 43.5 232.5 c 0
 54 243 54 243 67 243 c 0x25
127 111 m 0x63
 142 111 142 111 151.5 101 c 0
 161 91 161 91 161 76 c 0
 161 62 161 62 151 52 c 0
 141 42 141 42 127 42 c 0
 113 42 113 42 103 52 c 0
 93 62 93 62 93 76 c 0
 93 89 93 89 103.5 100 c 0
 114 111 114 111 127 111 c 0x63
127 388 m 0x33
 141 388 141 386 151 376 c 0x2b
 161 366 161 368 161 354 c 0
 161 339 161 339 151.5 329 c 0
 142 319 142 319 127 319 c 0x33
 113 319 113 319 103 329.5 c 0
 93 340 93 340 93 354 c 0
 93 366 93 365 104 376 c 0x2b
 115 387 115 388 127 388 c 0x33
261 58 m 0xa1
 276 58 276 58 285 48 c 0
 294 38 294 38 294 23 c 0
 294 9 294 10 284.5 0 c 0
 275 -10 275 -11 261 -11 c 0
 247 -11 247 -10 237 0 c 0
 227 10 227 9 227 23 c 0
 227 36 227 36 237.5 47 c 0
 248 58 248 58 261 58 c 0xa1
261 445 m 0x29
 275 445 275 445 284.5 435 c 0
 294 425 294 425 294 411 c 0
 294 396 294 396 285 386 c 0
 276 376 276 376 261 376 c 0
 247 376 247 376 237 386.5 c 0
 227 397 227 397 227 411 c 0
 227 423 227 423 238 434 c 0
 249 445 249 445 261 445 c 0x29
392 111 m 0x6180
 407 111 407 111 416.5 101 c 0
 426 91 426 91 426 76 c 0
 426 61 426 61 416.5 51.5 c 0
 407 42 407 42 392 42 c 0
 379 42 379 42 369 52 c 0
 359 62 359 62 359 76 c 0
 359 89 359 89 369.5 100 c 0
 380 111 380 111 392 111 c 0x6180
392 394 m 0
 407 394 407 394 416.5 384 c 0
 426 374 426 374 426 359 c 0
 426 344 426 344 416.5 334 c 0
 407 324 407 324 392 324 c 0
 379 324 379 324 369 334.5 c 0
 359 345 359 345 359 359 c 0
 359 371 359 371 369.5 382.5 c 0
 380 394 380 394 392 394 c 0
455 243 m 0
 469 243 469 243 478.5 233 c 0
 488 223 488 223 488 208 c 0
 488 193 488 193 479 183.5 c 0
 470 174 470 174 455 174 c 0
 441 174 441 174 431 184 c 0
 421 194 421 194 421 208 c 0x2140
 421 221 421 221 431.5 232 c 0
 442 243 442 243 455 243 c 0
EndSplineSet
Validated: 1
EndChar

StartChar: bracketleft
Encoding: 91 91 96
Width: 151
VWidth: 0
Flags: W
HStem: 4.56445 17.7598<72.8128 120.59> 384.244 18.24<77.8896 124.174>
VStem: 32.9102 44.1171<22.3242 384.116>
LayerCount: 2
Fore
SplineSet
120.707 12.7236 m 0
 120.707 6.75712 117.127 5.40641 110.225 4.56445 c 2
 55.1875 4.56445 l 2
 49.0723 4.56445 43.8311 6.96387 39.4619 6.96387 c 0
 33.296 6.96387 27.6689 10.9345 27.6689 15.6035 c 0
 27.2324 16.5645 27.2324 18.0039 27.2324 19.4443 c 0
 27.2324 22.3242 27.6689 26.6436 27.6689 32.4043 c 2
 27.6689 70.8037 l 2
 27.6689 88.5645 30.7266 112.084 30.7266 143.284 c 0
 30.7266 190.324 32.9102 229.684 32.9102 261.364 c 2
 32.9102 379.444 l 2
 32.9102 395.201 30.9533 396.513 41.6465 399.124 c 0
 45.5771 400.084 51.2559 401.044 56.9336 401.044 c 0
 62.6123 402.004 69.6016 402.004 76.1533 402.004 c 0
 82.7061 402.004 89.6943 402.484 95.8096 402.484 c 0
 101.925 402.484 107.604 402.004 111.971 402.004 c 0
 120.391 400.322 124.201 400.503 124.201 392.404 c 0
 124.201 384.912 121.94 384.244 113.719 384.244 c 2
 87.5107 384.244 l 2
 76.4277 384.244 77.9004 380.323 77.9004 365.044 c 0
 77.9004 355.444 77.4648 342.964 77.4648 328.084 c 2
 77.4648 280.564 l 1
 77.0273 232.564 l 2
 77.0273 206.644 73.9697 181.204 73.9697 157.204 c 0
 73.9697 133.204 72.2217 111.604 72.2217 92.4043 c 2
 72.2217 45.3643 l 2
 72.2217 27.591 72.7031 22.3242 84.0156 22.3242 c 0
 87.9473 21.8438 92.752 22.3242 97.1201 22.3242 c 2
 109.787 22.3242 l 2
 118.158 22.3242 119.923 19.625 120.707 12.7236 c 0
EndSplineSet
Validated: 1
EndChar

StartChar: bracketright
Encoding: 93 93 97
Width: 151
VWidth: 0
Flags: W
HStem: 5 17<27.094 74.3672> 384 18<23.0264 69.9481>
VStem: 23 92<5.02393 21.9985 384.001 400.916> 70 45<22.0044 383.766>
LayerCount: 2
Fore
SplineSet
27 13 m 0xd0
 28 20 29 22 38 22 c 2
 63 22 l 2
 75 22 75 28 75 45 c 2
 75 92 l 2
 75 112 73 133 73 157 c 0
 73 181 70 207 70 233 c 2
 70 365 l 2xd0
 70 380 71 384 60 384 c 2
 34 384 l 2
 25 384 23 385 23 392 c 0xe0
 23 401 27 400 35 402 c 1
 71 402 l 2
 78 402 85 402 90 401 c 1
 96 401 102 400 106 399 c 0
 116 397 115 395 115 379 c 2
 115 261 l 2
 115 230 117 190 117 143 c 0
 117 112 120 89 120 71 c 2
 120 16 l 2
 120 11 114 7 108 7 c 0
 104 7 98 5 92 5 c 2
 37 5 l 2
 30 5 27 7 27 13 c 0xd0
EndSplineSet
Validated: 1
EndChar

StartChar: less
Encoding: 60 60 98
Width: 420
Flags: W
HStem: 0 21G<360.826 405>
VStem: 14.4883 35.6465<176.808 227.543>
DStem2: 14.4883 227.543 50.1348 202.175 0.910979 0.412452<22.0101 413.68> 50.1348 202.175 14.4883 176.808 0.910978 -0.412454<0 391.671>
LayerCount: 2
Fore
SplineSet
405 0 m 1
 14.4883 176.808 l 1
 14.4883 227.543 l 1
 405 404.35 l 1
 405 368.001 l 1
 50.1348 202.175 l 1
 405 36.3477 l 1
 405 0 l 1
EndSplineSet
Validated: 1
EndChar

StartChar: greater
Encoding: 62 62 99
Width: 420
Flags: W
HStem: 0 21G<16 60.1808>
VStem: 371 36<177 228>
DStem2: 16 404 16 368 0.911878 -0.410462<14.7766 406.63> 16 36 16 0 0.911004 0.412398<0 391.864>
LayerCount: 2
Fore
SplineSet
16 0 m 1
 16 36 l 1
 371 202 l 1
 16 368 l 1
 16 404 l 1
 407 228 l 1
 407 177 l 1
 16 0 l 1
EndSplineSet
Validated: 1
EndChar

StartChar: question
Encoding: 63 63 100
Width: 248
Flags: W
HStem: -0.400391 63.958<93.0486 150.395> 390.522 17.933<76.2345 137.986>
VStem: 24.9043 29.1719<309.828 369.507> 91.2559 61.2041<0.931404 61.862> 115.852 9.724<102.412 125.519> 170.191 52.625<247.457 372.79>
LayerCount: 2
Fore
SplineSet
117.567 408.455 m 0xec
 173.052 408.455 222.816 373.786 222.816 315.805 c 0
 222.816 270.377 194.788 235.109 162.756 194.463 c 0
 141.592 166.369 131.867 142.46 125.576 102.412 c 1
 115.852 102.412 l 1
 117.012 155.733 130.292 180.794 149.027 225.546 c 0
 162.756 258.421 170.191 291.297 170.191 318.794 c 0
 170.191 358.843 142.736 390.522 108.416 390.522 c 0
 80.3877 390.522 54.0762 372.591 54.0762 353.462 c 0
 54.0762 340.91 75.8115 327.76 75.8115 309.229 c 0
 75.8115 294.884 66.0879 284.723 52.3604 284.723 c 0
 34.6279 284.723 24.9043 297.873 24.9043 321.783 c 0
 24.9043 371.395 64.9434 408.455 117.567 408.455 c 0xec
121.571 63.5576 m 0
 138.16 63.5576 152.46 48.6143 152.46 30.6826 c 0
 152.46 12.75 139.304 -0.400391 121 -0.400391 c 0
 103.84 -0.400391 91.2559 12.75 91.2559 30.084 c 0xf4
 91.2559 49.2119 104.411 63.5576 121.571 63.5576 c 0
EndSplineSet
Validated: 1
EndChar

StartChar: uniEE55
Encoding: 61013 61013 105
Width: 0
VWidth: 0
GlyphClass: 4
Flags: W
HStem: 122 38<-173.361 -94.2706>
VStem: -82 42<175.657 225.884>
AnchorPoint: "Podchashie" -138.5 224.5 mark 0
LayerCount: 2
Fore
SplineSet
-63 226 m 27
 -50 226 -40 216 -40 201 c 0
 -40 178 -41 166 -57 148 c 8
 -76 127 -97 122 -126 122 c 19
 -172 122 -198 139 -221 164 c 8
 -234 178 -243 191 -243 206 c 0
 -243 216 -231 223 -220 223 c 0
 -216 223 -212 222 -209 220 c 8
 -190 208 -189 190 -171 177 c 24
 -157 166 -147 160 -129 160 c 27
 -115 160 -104 164 -95 175 c 24
 -84 189 -92 204 -82 219 c 24
 -78 226 -71 226 -63 226 c 27
EndSplineSet
Validated: 1
EndChar

StartChar: uniEE63
Encoding: 61027 61027 106
Width: 352
VWidth: 0
Flags: HW
LayerCount: 2
Fore
SplineSet
261 172 m 0xa0
 249 172 238 178 235 194 c 8
 233 203 241 203 250 212 c 0
 256 218 249 225 243 227 c 24
 235 230 230 220 222 223 c 24
 209 227 205 236 194 245 c 17
 194 246 l 0
 194 259 215 264 235 264 c 0x60
 275 264 309 240 312 209 c 1
 312 188 281 172 261 172 c 0xa0
107 112 m 0xa0
 95 112 84 118 81 134 c 8
 79 143 87 143 96 152 c 0
 102 158 95 165 89 167 c 24
 81 170 76 160 68 163 c 24
 55 167 51 176 40 185 c 17
 40 186 l 0
 40 199 61 204 81 204 c 0x60
 121 204 155 180 158 149 c 1
 158 128 127 112 107 112 c 0xa0
EndSplineSet
EndChar

StartChar: uniEEB9
Encoding: 61113 61113 107
Width: 347
VWidth: 0
Flags: HW
LayerCount: 2
Fore
SplineSet
220 218 m 9
 246 224 259 235 287 235 c 0
 298 235 307 231 307 215 c 0
 307 201 248 179 209 179 c 0
 193 179 181 183 177 192 c 0
 169 214 160 238 157 263 c 1
 173 273 189 276 196 276 c 0
 215 276 211 253 220 218 c 9
107 103 m 0x48
 95 103 84 109 81 125 c 0
 79 134 87 134 95 143 c 0
 102 150 95 156 89 159 c 0
 81 162 75 151 67 154 c 0
 54 159 51 168 40 177 c 1
 40 178 l 2
 40 190 61 195 81 195 c 0x28
 121 195 155 171 158 140 c 1
 158 119 127 103 107 103 c 0x48
EndSplineSet
EndChar
